<svg width="34" height="34" viewBox="0 0 34 34" fill="none" xmlns="http://www.w3.org/2000/svg">
<path d="M15.4064 17C15.4064 17.4227 15.5744 17.8281 15.8732 18.127C16.1721 18.4258 16.5775 18.5938 17.0002 18.5938C17.4229 18.5938 17.8283 18.4258 18.1271 18.127C18.426 17.8281 18.5939 17.4227 18.5939 17C18.5939 16.5773 18.426 16.1719 18.1271 15.873C17.8283 15.5742 17.4229 15.4062 17.0002 15.4062C16.5775 15.4062 16.1721 15.5742 15.8732 15.873C15.5744 16.1719 15.4064 16.5773 15.4064 17ZM22.0471 17C22.0471 17.4227 22.215 17.8281 22.5139 18.127C22.8128 18.4258 23.2181 18.5938 23.6408 18.5938C24.0635 18.5938 24.4689 18.4258 24.7678 18.127C25.0667 17.8281 25.2346 17.4227 25.2346 17C25.2346 16.5773 25.0667 16.1719 24.7678 15.873C24.4689 15.5742 24.0635 15.4062 23.6408 15.4062C23.2181 15.4062 22.8128 15.5742 22.5139 15.873C22.215 16.1719 22.0471 16.5773 22.0471 17ZM8.76581 17C8.76581 17.4227 8.93373 17.8281 9.23261 18.127C9.5315 18.4258 9.93688 18.5938 10.3596 18.5938C10.7823 18.5938 11.1876 18.4258 11.4865 18.127C11.7854 17.8281 11.9533 17.4227 11.9533 17C11.9533 16.5773 11.7854 16.1719 11.4865 15.873C11.1876 15.5742 10.7823 15.4062 10.3596 15.4062C9.93688 15.4062 9.5315 15.5742 9.23261 15.873C8.93373 16.1719 8.76581 16.5773 8.76581 17ZM30.7197 11.2359C29.9693 9.45293 28.8936 7.85254 27.5223 6.47793C26.1606 5.11128 24.5441 4.02496 22.7643 3.28047C20.9381 2.51348 18.999 2.125 17.0002 2.125H16.9338C14.9217 2.13496 12.9727 2.5334 11.1398 3.31699C9.37528 4.06911 7.77392 5.15737 6.42499 6.52109C5.06699 7.89238 4.00117 9.48613 3.26406 11.2625C2.50038 13.102 2.11523 15.0576 2.12519 17.0697C2.13646 19.3756 2.68198 21.6475 3.71894 23.707V28.7539C3.71894 29.159 3.87985 29.5475 4.16629 29.8339C4.45272 30.1203 4.84121 30.2812 5.24628 30.2812H10.2965C12.356 31.3182 14.6279 31.8637 16.9338 31.875H17.0035C18.9924 31.875 20.9215 31.4898 22.7377 30.7361C24.5085 30.0005 26.119 28.9269 27.4791 27.5752C28.8504 26.2172 29.9295 24.6301 30.6832 22.8604C31.4668 21.0275 31.8652 19.0785 31.8752 17.0664C31.8852 15.0443 31.4934 13.082 30.7197 11.2359ZM25.7027 25.7789C23.3752 28.0832 20.2873 29.3516 17.0002 29.3516H16.9437C14.9416 29.3416 12.9527 28.8436 11.1963 27.9072L10.9174 27.7578H6.24238V23.0828L6.09296 22.8039C5.15663 21.0475 4.65859 19.0586 4.64863 17.0564C4.63534 13.7461 5.90038 10.6383 8.22128 8.29746C10.5389 5.95664 13.6367 4.66172 16.9471 4.64844H17.0035C18.6637 4.64844 20.274 4.97051 21.7914 5.60801C23.2723 6.22891 24.6004 7.12207 25.7426 8.26426C26.8814 9.40312 27.7779 10.7346 28.3988 12.2154C29.043 13.7494 29.365 15.3764 29.3584 17.0564C29.3385 20.3635 28.0402 23.4613 25.7027 25.7789Z" fill="white"/>
</svg>
