<svg width="24" height="24" viewBox="0 0 24 24" fill="none" xmlns="http://www.w3.org/2000/svg">
<g opacity="0.6">
<path d="M12 16C14.2091 16 16 14.2091 16 12C16 9.79086 14.2091 8 12 8C9.79086 8 8 9.79086 8 12C8 14.2091 9.79086 16 12 16Z" stroke="black" stroke-width="2" stroke-linecap="round" stroke-linejoin="round"/>
<path d="M18.4511 8.18941L18.3919 8.08255C18.2287 7.78781 18.1453 7.45234 18.1508 7.11201L18.1777 5.44242C18.1833 5.10121 18.0107 4.78377 17.7272 4.61339L15.2638 3.13322C14.981 2.96327 14.6321 2.96631 14.352 3.14118L12.9847 3.99491C12.7052 4.1694 12.3856 4.26156 12.0598 4.26156H11.9413C11.6148 4.26156 11.2946 4.169 11.0147 3.99379L9.64103 3.13388C9.35998 2.95794 9.00942 2.95523 8.7259 3.12682L6.27038 4.61289C5.9882 4.78367 5.81673 5.10029 5.82222 5.44046L5.84919 7.11201C5.85468 7.45234 5.77133 7.78782 5.60806 8.08255L5.54965 8.18798C5.38629 8.48288 5.14907 8.72588 4.8634 8.89095L3.46382 9.69971C3.17695 9.86548 2.99926 10.1808 3 10.5228L3.00645 13.4811C3.00719 13.821 3.18411 14.1339 3.46898 14.2992L4.86184 15.1072C5.14848 15.2734 5.38611 15.5182 5.54906 15.8151L5.61164 15.9291C5.77261 16.2223 5.8547 16.5554 5.84923 16.8933L5.82228 18.5575C5.81676 18.8988 5.98929 19.2162 6.27286 19.3866L8.73616 20.8668C9.019 21.0367 9.36791 21.0337 9.64799 20.8588L11.0153 20.0051C11.2948 19.8306 11.6144 19.7384 11.9402 19.7384H12.0587C12.3851 19.7384 12.7054 19.831 12.9853 20.0062L14.359 20.8661C14.64 21.0421 14.9906 21.0448 15.2741 20.8732L17.7296 19.3871C18.0118 19.2163 18.1833 18.8997 18.1778 18.5595L18.1508 16.888C18.1453 16.5477 18.2287 16.2122 18.3919 15.9175L18.4503 15.812C18.6137 15.5171 18.8509 15.2741 19.1366 15.109L20.5362 14.3003C20.823 14.1345 21.0007 13.8192 21 13.4772L20.9936 10.5189C20.9928 10.179 20.8159 9.86606 20.531 9.70082L19.1348 8.89089C18.8503 8.72584 18.614 8.48341 18.4511 8.18941Z" stroke="black" stroke-width="2" stroke-linecap="round" stroke-linejoin="round"/>
</g>
</svg>
