<svg width="657" height="550" viewBox="0 0 657 550" fill="none" xmlns="http://www.w3.org/2000/svg">
<g clip-path="url(#clip0_1452_5998)">
<g opacity="0.41">
<mask id="mask0_1452_5998" style="mask-type:luminance" maskUnits="userSpaceOnUse" x="24" y="0" width="634" height="550">
<path d="M657.129 0H24.876V549.099H657.129V0Z" fill="white"/>
</mask>
<g mask="url(#mask0_1452_5998)">
<path d="M652.378 353.161C652.937 342.54 652.657 331.919 651.539 321.437C645.949 271.964 620.513 225.285 583.199 192.443C569.922 180.703 554.689 170.222 546.024 154.709C531.349 128.575 532.467 98.6669 514.439 72.8121C496.271 46.9574 469.857 26.8326 439.949 16.4907C351.065 -14.2554 226.543 35.9167 237.723 142.969C237.723 143.389 237.863 143.948 237.863 144.646C239.4 166.868 221.931 185.595 199.71 186.154C117.674 188.11 47.0971 251.42 31.8638 331.499C22.0809 383.069 38.013 439.53 75.747 476.006C103.838 503.259 141.572 518.212 179.445 528.415C255.193 548.959 334.853 553.291 412.977 545.465C486.069 538.058 563.214 517.094 610.451 460.773C635.747 430.726 650.141 392.293 652.378 353.161Z" fill="#66C68F"/>
</g>
</g>
<g opacity="0.88">
<mask id="mask1_1452_5998" style="mask-type:luminance" maskUnits="userSpaceOnUse" x="93" y="81" width="496" height="431">
<path d="M588.65 81.0586H93.3564V511.226H588.65V81.0586Z" fill="white"/>
</mask>
<g mask="url(#mask1_1452_5998)">
<path opacity="0.16" d="M588.37 355.538C588.79 347.153 588.65 338.628 587.672 330.382C583.199 291.111 563.075 254.076 533.446 227.942C522.825 218.578 510.806 210.193 503.958 197.894C492.358 177.21 493.197 153.312 478.802 132.908C464.407 112.364 443.444 96.4318 419.686 88.1862C348.969 63.729 250.162 103.559 258.967 188.67C258.967 188.95 258.967 189.369 259.107 189.928C260.225 207.537 246.389 222.491 228.78 222.91C163.654 224.448 107.472 274.76 95.5929 338.348C87.9063 379.297 100.484 424.158 130.392 453.087C152.753 474.75 182.66 486.629 212.708 494.735C272.803 511.086 336.112 514.58 398.163 508.291C456.162 502.421 517.514 485.79 554.969 441.069C575.094 417.17 586.553 386.564 588.37 355.538Z" fill="#21B8BF"/>
</g>
</g>
<g opacity="0.31">
<mask id="mask2_1452_5998" style="mask-type:luminance" maskUnits="userSpaceOnUse" x="598" y="60" width="41" height="42">
<path d="M638.822 60.6543H598.153V101.323H638.822V60.6543Z" fill="white"/>
</mask>
<g mask="url(#mask2_1452_5998)">
<path opacity="0.25" d="M638.822 81.0586C638.822 92.239 629.738 101.463 618.418 101.463C607.098 101.463 598.153 92.239 598.153 81.0586C598.153 69.8781 607.237 60.6543 618.558 60.6543C629.878 60.6543 638.822 69.7384 638.822 81.0586Z" fill="#21B8BF"/>
</g>
</g>
<g opacity="0.31">
<mask id="mask3_1452_5998" style="mask-type:luminance" maskUnits="userSpaceOnUse" x="148" y="33" width="48" height="49">
<path d="M195.378 33.8203H148.141V81.0576H195.378V33.8203Z" fill="white"/>
</mask>
<g mask="url(#mask3_1452_5998)">
<path opacity="0.25" d="M195.378 57.439C195.378 70.4362 184.757 81.0576 171.759 81.0576C158.762 81.0576 148.141 70.4362 148.141 57.439C148.141 44.4417 158.762 33.8203 171.759 33.8203C184.757 33.8203 195.378 44.4417 195.378 57.439Z" fill="#21B8BF"/>
</g>
</g>
<g opacity="0.31">
<mask id="mask4_1452_5998" style="mask-type:luminance" maskUnits="userSpaceOnUse" x="0" y="480" width="61" height="61">
<path d="M60.9333 480.06H0V540.993H60.9333V480.06Z" fill="white"/>
</mask>
<g mask="url(#mask4_1452_5998)">
<path opacity="0.25" d="M60.9333 510.526C60.9333 527.297 47.2373 540.993 30.4667 540.993C13.696 540.993 0 527.297 0 510.526C0 493.756 13.696 480.06 30.4667 480.06C47.2373 480.06 60.9333 493.756 60.9333 510.526Z" fill="#21B8BF"/>
</g>
</g>
<path d="M273.362 349.668C278.812 389.778 250.721 426.534 210.611 431.984C170.502 437.434 133.746 409.344 128.295 369.234C122.845 329.124 150.936 292.368 191.046 286.918C231.155 281.607 267.911 309.698 273.362 349.668Z" fill="#21B8BF"/>
<path d="M258.268 404.872C258.128 404.872 257.849 404.872 257.709 404.732C257.43 404.452 257.29 404.033 257.569 403.754C269.309 388.381 274.34 369.374 271.824 350.088C269.309 330.941 259.386 313.891 244.013 302.152C228.64 290.412 209.633 285.381 190.347 287.896C171.061 290.412 154.15 300.335 142.411 315.708C142.132 315.987 141.712 316.127 141.433 315.848C141.153 315.568 141.013 315.149 141.293 314.869C153.312 299.217 170.642 289.154 190.207 286.499C209.773 283.844 229.199 289.014 244.852 301.033C260.504 313.052 270.567 330.382 273.222 349.948C275.877 369.514 270.706 388.94 258.687 404.592C258.548 404.732 258.408 404.872 258.268 404.872Z" fill="#0D2B2B"/>
<path d="M256.032 352.044C260.084 382.511 238.702 410.602 208.235 414.655C177.769 418.707 149.678 397.325 145.625 366.858C141.572 336.392 162.954 308.301 193.421 304.248C223.888 300.195 251.839 321.577 256.032 352.044Z" fill="white"/>
<path d="M208.375 415.353C177.629 419.546 149.119 397.884 144.926 366.998C140.734 336.252 162.396 307.741 193.282 303.549C193.701 303.549 193.981 303.828 194.12 304.108C194.12 304.527 193.841 304.807 193.561 304.946C163.514 308.999 142.411 336.671 146.464 366.718C150.517 396.766 178.188 417.869 208.236 413.816C208.655 413.816 208.934 414.095 209.074 414.375C208.934 414.934 208.795 415.213 208.375 415.353Z" fill="#0D2B2B"/>
<path d="M216.481 368.116L201.528 370.073C198.453 370.492 195.658 368.256 195.239 365.181L192.443 344.358C192.024 341.702 193.981 339.187 196.636 338.907C199.291 338.488 201.807 340.445 202.087 343.1L204.323 359.731L215.224 358.194C217.879 357.774 220.394 359.731 220.674 362.386C221.093 365.181 219.276 367.697 216.481 368.116Z" fill="#0D2B2B"/>
<path d="M211.59 209.913C208.794 209.913 205.999 209.913 203.204 209.913C203.064 209.633 202.785 209.773 202.645 209.633C196.636 209.214 190.906 207.816 185.455 205.44C179.027 202.785 173.157 199.151 167.986 194.4C167.427 193.981 167.287 193.561 167.706 192.862C169.244 190.347 170.641 187.692 172.179 185.036C172.877 183.778 172.458 182.521 171.2 182.381C170.222 182.101 169.663 182.66 169.244 183.499C167.986 185.875 166.588 188.251 165.331 190.487C165.051 191.046 164.772 191.185 164.352 190.626C161.278 187.133 158.622 183.359 156.386 179.306C156.107 178.747 156.107 178.328 156.805 178.048C158.203 177.21 159.601 176.371 160.998 175.533C162.396 174.694 162.675 173.856 162.116 172.877C161.557 172.039 160.579 171.899 159.321 172.598C158.063 173.297 156.666 174.135 155.408 174.974C154.709 175.393 154.43 175.253 154.15 174.555C152.194 169.943 150.796 165.051 150.097 160.16C149.818 158.762 149.957 157.225 149.398 155.827C149.398 152.892 149.398 150.097 149.398 147.163C149.818 146.324 149.678 145.485 149.818 144.647C151.495 131.23 156.805 119.491 166.588 110.127C184.757 92.9374 205.999 88.4652 229.478 97.2698C256.032 107.332 271.125 136.262 264.836 163.933C259.526 187.831 240.379 205.58 216.062 209.214C214.524 209.493 212.987 209.493 211.59 209.913ZM174.694 144.088C173.017 145.066 171.48 146.184 169.803 147.023C167.287 148.56 164.492 149.678 161.697 150.936C160.299 151.495 160.16 152.892 161.278 153.591C165.191 155.967 169.244 158.203 173.157 160.439C173.297 160.579 173.297 160.579 173.436 160.719C173.297 160.859 173.017 161.138 172.877 161.278C169.803 163.793 168.685 167.148 169.383 170.921C169.942 174.974 173.576 178.328 177.909 178.887C181.822 179.446 186.014 177.35 187.971 173.716C188.67 172.458 188.809 171.061 189.368 169.803C194.26 172.598 199.291 175.533 204.183 178.328C212.149 182.94 220.115 187.552 228.22 192.164C228.779 192.443 229.339 192.862 230.177 192.443C230.876 192.024 230.876 191.465 230.736 190.766C230.037 185.875 229.898 180.983 230.317 175.952C232.693 175.952 233.95 175.253 234.509 173.437C235.068 171.759 234.37 170.362 232.273 169.244C231.994 169.104 231.575 168.825 231.435 168.545C231.714 167.148 232.134 165.75 232.413 164.492C233.95 159.042 236.466 154.011 239.121 149.119C241.078 145.485 242.056 141.572 242.056 137.38C242.056 131.091 239.82 125.64 235.628 121.028C234.649 120.05 234.649 119.211 235.208 118.093C236.187 116.277 237.165 114.32 238.283 112.503C239.261 110.686 239.541 108.87 238.842 107.053C237.864 104.537 235.907 103.14 233.252 102.72C230.736 102.301 228.64 103.419 227.242 105.655C225.845 107.612 224.587 109.708 222.91 111.525C222.351 112.224 221.931 112.363 221.093 112.084C217.32 111.106 213.406 110.966 209.633 111.665C203.204 112.922 198.313 116.416 194.539 121.587C192.583 124.243 191.046 127.038 189.229 129.693C186.713 133.187 183.778 136.401 180.704 139.336C180.005 139.057 179.446 138.637 178.747 138.358C176.371 137.38 173.995 138.917 173.995 141.433C173.856 142.411 174.554 143.249 174.694 144.088ZM186.573 192.723C186.713 191.185 186.713 189.788 186.713 188.251C186.713 186.993 186.154 186.294 185.036 186.294C184.058 186.294 183.359 186.993 183.359 188.251C183.359 191.185 183.219 194.12 183.219 197.195C183.219 198.453 183.918 199.151 184.896 199.151C185.875 199.151 186.573 198.453 186.573 197.195C186.573 195.658 186.573 194.26 186.573 192.723Z" fill="#66C68F"/>
<path d="M238.982 106.913C239.681 108.869 239.262 110.686 238.423 112.363C237.445 114.18 236.466 116.137 235.348 117.953C234.789 119.071 234.789 119.77 235.768 120.888C239.96 125.5 242.196 130.951 242.196 137.24C242.196 141.293 241.218 145.345 239.262 148.979C236.606 154.01 234.091 158.902 232.553 164.352C232.134 165.75 231.854 167.008 231.575 168.405C230.038 167.986 228.92 167.147 227.662 166.309C217.599 160.439 207.397 154.709 197.335 148.839C195.658 147.861 193.841 147.022 192.304 145.765C195.378 142.69 197.894 139.336 200.27 135.702C203.205 130.951 206.139 126.339 210.612 122.985C216.062 118.792 222.351 116.835 229.339 117.674C230.597 117.814 231.854 118.093 233.112 118.233C232.973 117.674 232.553 117.534 232.274 117.255C231.295 116.556 230.317 115.857 229.339 115.158C229.059 115.019 228.5 114.739 228.92 114.32C229.758 113.341 230.317 112.084 231.435 111.245C232.414 111.804 233.392 111.944 234.51 111.245C236.047 110.407 236.327 109.149 235.628 106.913C236.606 106.773 237.724 106.913 238.982 106.913Z" fill="#D5FFE5"/>
<path d="M230.317 176.092C229.898 180.984 230.038 186.015 230.736 190.906C230.876 191.605 230.736 192.164 230.177 192.583C229.479 193.003 228.92 192.583 228.221 192.304C220.255 187.692 212.289 183.08 204.183 178.468C199.291 175.673 194.26 172.738 189.369 169.943C187.831 168.965 186.154 168.126 184.617 167.148C180.983 165.052 177.35 162.816 173.576 160.859C173.437 160.719 173.437 160.719 173.297 160.579C173.437 160.44 173.576 160.3 173.716 160.16C176.232 158.902 178.608 157.365 180.844 155.828C182.94 154.43 184.897 152.893 186.713 151.216C187.552 151.216 188.251 151.775 188.949 152.194C197.055 156.806 205.021 161.558 213.127 166.17C218.857 169.384 224.587 172.738 230.317 176.092Z" fill="#D5FFE5"/>
<path d="M231.295 111.525C230.177 112.363 229.757 113.621 228.779 114.599C228.36 115.018 228.919 115.298 229.198 115.438C230.177 116.136 231.155 116.835 232.133 117.534C232.413 117.814 232.832 117.953 232.972 118.512C231.714 118.233 230.456 118.093 229.198 117.953C222.211 117.115 216.061 118.932 210.471 123.264C205.999 126.758 203.064 131.37 200.129 135.982C197.893 139.615 195.238 142.97 192.163 146.044C192.023 146.044 191.744 145.904 191.604 145.904C187.971 143.808 184.197 141.572 180.563 139.476C183.778 136.541 186.713 133.326 189.089 129.833C190.905 127.177 192.582 124.382 194.399 121.727C198.173 116.556 203.204 113.062 209.493 111.804C213.406 111.105 217.179 111.105 220.953 112.223C221.791 112.503 222.211 112.223 222.77 111.664C224.307 109.848 225.704 107.751 227.102 105.795C228.5 103.698 230.596 102.58 233.112 102.86C235.767 103.279 237.723 104.677 238.702 107.192C237.444 107.192 236.326 107.052 235.068 107.472C234.928 107.472 234.928 107.472 234.789 107.472C234.09 106.354 232.972 106.214 231.854 106.493C230.596 106.773 229.897 107.611 229.757 108.869C229.618 109.987 230.037 110.966 231.015 111.525C231.295 111.245 231.295 111.385 231.295 111.525Z" fill="#98E7E5"/>
<path d="M180.564 139.336C184.197 141.432 187.971 143.669 191.604 145.765C191.744 145.905 192.023 145.905 192.163 145.905C193.701 147.162 195.517 148.001 197.194 148.979C207.257 154.849 217.319 160.719 227.521 166.449C228.779 167.147 230.037 168.126 231.435 168.545C231.574 168.964 231.994 169.104 232.273 169.244C234.23 170.502 234.928 171.759 234.509 173.436C233.95 175.253 232.692 175.952 230.316 175.952C224.586 172.598 218.857 169.384 213.127 166.029C205.021 161.418 197.055 156.666 188.949 152.054C188.25 151.635 187.551 151.215 186.713 151.076C186.573 150.796 186.154 150.517 185.874 150.377C183.079 148.84 180.424 147.162 177.629 145.625C176.65 145.066 175.812 144.228 174.554 144.088C174.414 143.11 173.716 142.411 173.855 141.432C173.995 138.917 176.371 137.24 178.607 138.358C179.446 138.637 180.005 139.057 180.564 139.336Z" fill="#A4D4B7"/>
<path d="M173.576 160.719C177.35 162.675 180.844 164.911 184.617 167.008C186.294 167.986 187.831 168.825 189.369 169.803C188.81 171.061 188.67 172.458 187.971 173.716C186.015 177.35 181.822 179.586 177.909 178.887C173.716 178.188 170.082 174.834 169.384 170.921C168.825 167.148 169.803 163.793 172.878 161.278C173.297 161.138 173.437 160.998 173.576 160.719Z" fill="#98E7E5"/>
<path d="M174.694 144.088C175.812 144.228 176.651 145.066 177.769 145.625C180.564 147.163 183.219 148.84 186.014 150.377C186.294 150.517 186.713 150.796 186.853 151.076C185.036 152.892 183.079 154.29 180.983 155.688C178.607 157.225 176.371 158.762 173.856 160.02C173.716 160.16 173.576 160.3 173.436 160.439C169.383 158.203 165.47 155.967 161.557 153.591C160.299 152.892 160.579 151.635 161.976 150.936C164.772 149.678 167.427 148.56 170.082 147.023C171.48 146.184 173.017 145.206 174.694 144.088Z" fill="#98E7E5"/>
<path d="M231.295 111.525C231.295 111.385 231.295 111.385 231.295 111.245C232.273 109.568 233.391 108.031 235.208 107.192C235.348 107.192 235.348 107.192 235.488 107.192C236.186 109.428 235.907 110.686 234.37 111.525C233.251 112.084 232.273 111.944 231.295 111.525Z" fill="#66C68F"/>
<path d="M235.208 107.193C233.391 108.031 232.273 109.568 231.295 111.246C230.316 110.687 229.897 109.708 230.037 108.59C230.177 107.332 231.015 106.494 232.133 106.214C233.391 105.795 234.369 106.075 235.208 107.193Z" fill="#66C68F"/>
<path d="M435.618 530.092L264.138 504.796C244.712 501.861 231.295 483.833 234.23 464.547L295.722 48.9141C298.657 29.4881 316.686 16.0715 335.972 19.0064L507.452 44.3021C526.878 47.237 540.294 65.2654 537.359 84.5517L475.867 500.324C473.072 519.61 455.044 533.027 435.618 530.092Z" fill="#0D2B2B"/>
<path d="M309.072 57.7657L251.025 450.246L463.924 481.733L521.971 89.2529L309.072 57.7657Z" fill="#ECF1F7"/>
<path d="M309.093 57.7567L304.738 87.2031L517.637 118.69L521.992 89.2439L309.093 57.7567Z" fill="#21B8BF"/>
<path d="M353.861 504.237C353.162 504.237 352.463 504.237 351.765 504.097C348.131 503.538 344.917 501.581 342.68 498.646C340.444 495.712 339.606 491.938 340.025 488.304C340.584 484.671 342.541 481.456 345.476 479.22C348.41 476.984 352.184 476.146 355.817 476.705C359.451 477.264 362.665 479.22 364.902 482.155C367.138 485.09 367.976 488.864 367.557 492.497C366.579 499.345 360.709 504.237 353.861 504.237ZM353.861 478.801C351.345 478.801 348.969 479.64 347.013 481.037C344.497 482.854 342.96 485.509 342.401 488.584C341.982 491.659 342.68 494.733 344.497 497.109C346.314 499.625 348.969 501.162 352.044 501.721C358.333 502.699 364.203 498.227 365.181 491.938C365.6 488.864 364.902 485.789 363.085 483.413C361.268 480.897 358.613 479.36 355.538 478.801C354.979 478.801 354.42 478.801 353.861 478.801Z" fill="#ECF1F7"/>
<path d="M384.607 53.9451C384.327 53.9451 384.187 53.9451 383.908 53.9451C382.79 53.8053 381.672 53.1066 380.973 52.1283C380.274 51.15 379.995 50.032 380.135 48.7742C380.274 47.6561 380.973 46.5381 381.951 45.8393C382.93 45.1405 384.048 44.861 385.306 45.0008C386.424 45.1405 387.542 45.8393 388.24 46.8176C388.939 47.7959 389.219 48.9139 389.079 50.1717C388.66 52.4078 386.843 53.9451 384.607 53.9451ZM384.607 47.3766C384.187 47.3766 383.768 47.5164 383.349 47.7959C382.93 48.0754 382.65 48.6344 382.51 49.1934C382.371 49.7524 382.51 50.3115 382.93 50.7307C383.209 51.15 383.768 51.4295 384.327 51.5693C384.886 51.709 385.445 51.5693 385.865 51.15C386.284 50.8705 386.563 50.3115 386.703 49.7524C386.843 49.1934 386.703 48.6344 386.284 48.2151C386.004 47.7959 385.445 47.5164 384.886 47.3766C384.886 47.3766 384.746 47.3766 384.607 47.3766Z" fill="#ECF1F7"/>
<path d="M453.786 64.1475C453.507 64.1475 453.367 64.1475 453.087 64.1475L398.722 56.1814C397.604 56.0417 396.486 55.3429 395.788 54.3646C395.089 53.3863 394.809 52.2683 394.949 51.0105C395.089 49.8924 395.788 48.7744 396.766 48.0756C397.744 47.3768 398.862 47.0973 400.12 47.2371L454.485 55.2031C455.603 55.3429 456.721 56.0417 457.42 57.02C458.118 57.9983 458.398 59.1163 458.258 60.3741C458.118 61.4921 457.42 62.6102 456.441 63.309C455.603 63.868 454.764 64.1475 453.786 64.1475ZM399.421 49.4732C398.443 49.4732 397.465 50.172 397.325 51.29C397.185 51.849 397.325 52.408 397.744 52.8273C398.024 53.2466 398.583 53.5261 399.142 53.6658L453.506 61.6319C454.625 61.7716 455.743 60.9331 455.882 59.8151C456.022 59.256 455.882 58.697 455.463 58.2778C455.184 57.8585 454.625 57.579 454.066 57.4392L399.701 49.4732C399.701 49.4732 399.561 49.4732 399.421 49.4732Z" fill="#ECF1F7"/>
<path d="M322.415 78.8221C322.136 78.8221 321.996 78.8221 321.717 78.8221C319.201 78.4028 317.524 76.1667 317.943 73.6511C318.083 72.3933 318.782 71.415 319.76 70.7162C320.738 70.0175 321.996 69.738 323.114 69.8777C325.63 70.297 327.307 72.5331 326.887 75.0487C326.468 77.2847 324.512 78.8221 322.415 78.8221ZM322.415 72.1138C321.996 72.1138 321.437 72.2536 321.157 72.5331C320.738 72.9523 320.319 73.3716 320.319 73.9306C320.179 74.4896 320.319 75.0487 320.738 75.6077C321.157 76.0269 321.577 76.4462 322.136 76.4462C323.394 76.586 324.512 75.7474 324.651 74.6294C324.791 74.0704 324.651 73.5114 324.232 72.9523C323.813 72.5331 323.394 72.1138 322.835 72.1138C322.555 72.1138 322.415 72.1138 322.415 72.1138Z" fill="white"/>
<path d="M334.854 80.7781C334.574 80.7781 334.435 80.7781 334.155 80.7781C331.639 80.3588 329.962 78.1227 330.382 75.6071C330.801 73.0915 333.037 71.4145 335.553 71.8337C336.81 71.9735 337.789 72.6723 338.487 73.6506C339.186 74.6288 339.466 75.8866 339.326 77.0047C339.186 78.2625 338.487 79.2408 337.509 79.9395C336.81 80.3588 335.832 80.7781 334.854 80.7781ZM334.854 73.9301C333.736 73.9301 332.757 74.7686 332.618 75.8866C332.478 76.4457 332.618 77.0047 333.037 77.5637C333.456 77.983 333.875 78.4022 334.435 78.4022C334.994 78.542 335.553 78.4022 336.112 77.983C336.531 77.5637 336.95 77.1444 336.95 76.5854C337.09 76.0264 336.95 75.4674 336.531 74.9084C336.112 74.4891 335.692 74.0698 335.133 74.0698C335.133 73.9301 334.994 73.9301 334.854 73.9301Z" fill="white"/>
<path d="M347.292 82.5955C347.013 82.5955 346.873 82.5955 346.593 82.5955C344.078 82.1762 342.401 79.9401 342.82 77.4245C343.239 74.9089 345.475 73.2319 347.991 73.6511C350.507 74.0704 352.184 76.3065 351.764 78.8221C351.345 80.9184 349.389 82.5955 347.292 82.5955ZM347.292 75.7475C346.873 75.7475 346.314 75.8872 346.034 76.1667C345.615 76.586 345.196 77.0052 345.196 77.5643C345.056 78.1233 345.196 78.6823 345.615 79.2413C346.034 79.6606 346.454 80.0799 347.013 80.0799C348.271 80.2196 349.389 79.3811 349.528 78.263C349.668 77.0052 348.83 75.8872 347.712 75.7475C347.432 75.7475 347.292 75.7475 347.292 75.7475Z" fill="white"/>
<path d="M520.449 120.19H520.309L323.254 90.9806C322.555 90.8409 322.136 90.2819 322.276 89.7228C322.416 89.0241 322.975 88.6048 323.534 88.7446L520.589 117.953C521.287 118.093 521.707 118.652 521.567 119.211C521.567 119.77 521.008 120.19 520.449 120.19Z" fill="#0D2B2B"/>
<path d="M312.773 250.441L388.939 205.58C393.551 202.924 399.281 203.623 402.915 207.397L463.988 270.706C464.128 270.845 463.988 270.985 463.848 270.985L312.493 250.441" fill="#21B8BF"/>
<path d="M312.354 251.001L312.493 250.022L312.354 249.743L312.493 249.603L388.38 204.881C393.272 202.086 399.281 202.785 403.194 206.838L464.268 270.147C464.547 270.427 464.547 270.846 464.407 271.125C464.268 271.405 463.848 271.684 463.569 271.545L312.354 251.001ZM397.325 205.021C394.669 204.322 391.735 204.742 389.219 206.139L314.729 250.022L462.311 270.147L402.496 207.956C400.958 206.419 399.281 205.44 397.325 205.021Z" fill="#0D2B2B"/>
<path d="M373.287 295.862L311.375 347.991L439.95 365.46L394.25 298.657C389.498 291.809 379.715 290.412 373.287 295.862Z" fill="#21B8BF"/>
<path d="M309.698 348.55L372.728 295.443C375.942 292.787 380.275 291.53 384.328 292.089C388.52 292.648 392.294 295.023 394.669 298.517L441.208 366.578L309.698 348.55ZM385.725 293.626C385.306 293.486 384.747 293.346 384.188 293.346C380.414 292.787 376.501 293.905 373.566 296.421L313.052 347.571L438.553 364.622L393.691 299.076C391.735 296.421 388.94 294.464 385.725 293.626Z" fill="#0D2B2B"/>
<path d="M446.518 366.718L304.247 347.432C301.452 347.012 299.635 344.497 299.915 341.841L312.353 250.721C312.353 250.581 312.493 250.441 312.633 250.441L464.128 270.985C464.267 270.985 464.407 271.125 464.407 271.265L451.969 362.385C451.829 365.181 449.313 366.997 446.518 366.718Z" fill="#21B8BF"/>
<path d="M303.688 347.991C300.893 347.292 299.076 344.637 299.496 341.702L311.934 250.582C312.074 250.023 312.493 249.743 313.052 249.743L464.547 270.287C465.106 270.427 465.385 270.846 465.385 271.405L452.947 362.526C452.807 364.063 451.969 365.321 450.711 366.299C449.453 367.277 448.056 367.557 446.518 367.417L304.247 347.991C304.108 347.991 303.828 347.991 303.688 347.991ZM313.052 251.141L300.753 341.842C300.474 344.218 302.011 346.314 304.387 346.733L446.658 366.02C447.776 366.159 448.894 365.88 449.872 365.181C450.711 364.482 451.41 363.504 451.549 362.386L463.848 271.685L313.052 251.141Z" fill="#0D2B2B"/>
<g opacity="0.29">
<mask id="mask5_1452_5998" style="mask-type:luminance" maskUnits="userSpaceOnUse" x="288" y="233" width="177" height="148">
<path d="M316.7 233.739L288.988 343.5L436.826 380.825L464.538 271.065L316.7 233.739Z" fill="white"/>
</mask>
<g mask="url(#mask5_1452_5998)">
<path d="M440.09 365.041L311.095 349.109C308.3 348.689 363.224 306.064 363.504 303.409L312.353 250.721C312.353 250.581 312.493 250.441 312.633 250.441L464.127 270.985C464.267 270.985 464.407 271.125 464.407 271.265L401.377 308.44C401.098 311.235 442.745 365.46 440.09 365.041Z" fill="#243762"/>
</g>
</g>
<g opacity="0.29">
<mask id="mask6_1452_5998" style="mask-type:luminance" maskUnits="userSpaceOnUse" x="312" y="186" width="164" height="102">
<path d="M328.552 186.831L312.507 250.384L459.803 287.572L475.848 224.02L328.552 186.831Z" fill="white"/>
</mask>
<g mask="url(#mask6_1452_5998)">
<path d="M312.773 250.441L388.939 205.58C393.551 202.924 399.281 203.623 402.915 207.397L463.988 270.706C464.128 270.845 463.988 270.985 463.848 270.985L312.493 250.441" fill="#243762"/>
</g>
</g>
<path d="M331.22 208.655L430.306 222.072C436.735 222.91 441.487 228.221 440.648 233.811L432.962 290.272L399.979 308.161L363.643 303.27L334.155 272.523L341.562 217.739L331.22 208.655Z" fill="white"/>
<path d="M363.224 303.968L333.456 272.802L340.863 218.158L333.596 208.235L430.446 221.372C433.801 221.792 436.735 223.329 438.832 225.705C440.928 228.081 441.906 231.015 441.487 233.95L433.801 290.831L400.259 308.999L363.224 303.968ZM334.854 272.383L363.923 302.71L399.84 307.601L432.263 289.992L439.95 233.811C440.229 231.295 439.531 228.779 437.714 226.683C435.897 224.587 433.241 223.189 430.167 222.77L333.316 209.633L342.261 217.599L334.854 272.383Z" fill="#0D2B2B"/>
<g opacity="0.29">
<mask id="mask7_1452_5998" style="mask-type:luminance" maskUnits="userSpaceOnUse" x="311" y="273" width="145" height="107">
<path d="M330.32 273.149L311.4 348.084L436.473 379.662L455.392 304.727L330.32 273.149Z" fill="white"/>
</mask>
<g mask="url(#mask7_1452_5998)">
<path d="M374.684 290.412L311.375 347.991L439.95 365.46L395.647 293.207C390.896 286.219 381.113 284.961 374.684 290.412Z" fill="#243762"/>
</g>
</g>
<path d="M373.287 295.862L311.375 347.991L439.95 365.46L394.25 298.657C389.498 291.809 379.715 290.412 373.287 295.862Z" fill="#21B8BF"/>
<path d="M309.698 348.55L372.728 295.443C375.942 292.787 380.275 291.53 384.328 292.089C388.52 292.648 392.294 295.023 394.669 298.517L441.208 366.578L309.698 348.55ZM385.725 293.626C385.306 293.486 384.747 293.346 384.188 293.346C380.414 292.787 376.501 293.905 373.566 296.421L313.052 347.571L438.553 364.622L393.691 299.076C391.735 296.421 388.94 294.464 385.725 293.626Z" fill="#0D2B2B"/>
<g opacity="0.35">
<mask id="mask8_1452_5998" style="mask-type:luminance" maskUnits="userSpaceOnUse" x="328" y="298" width="106" height="75">
<path d="M341.614 298.346L328.716 349.432L420.589 372.627L433.487 321.541L341.614 298.346Z" fill="white"/>
</mask>
<g mask="url(#mask8_1452_5998)">
<path d="M374.126 311.095L328.705 349.388L423.18 362.246L389.638 313.192C386.005 308.021 378.877 307.182 374.126 311.095Z" fill="#ECF1F7"/>
</g>
</g>
<path d="M313.374 250.101L312.367 251.07L363.146 303.841L364.153 302.872L313.374 250.101Z" fill="#0D2B2B"/>
<path d="M464.249 270.544L401.24 307.863L401.952 309.066L464.961 271.747L464.249 270.544Z" fill="#0D2B2B"/>
<path d="M338.068 243.035L320.738 240.659L324.092 216.062C324.651 211.45 328.844 208.376 333.456 208.935L334.295 209.074C338.906 209.633 341.981 213.826 341.422 218.438L338.068 243.035Z" fill="#ECF1F7"/>
<path d="M320.04 241.358L323.534 216.062C323.813 213.686 325.071 211.59 327.028 210.052C328.984 208.655 331.36 207.956 333.736 208.236L334.575 208.375C336.95 208.655 339.047 209.913 340.584 211.869C341.982 213.826 342.68 216.202 342.401 218.577L338.907 243.873L320.04 241.358ZM334.994 209.913C334.714 209.773 334.435 209.773 334.155 209.773L333.317 209.633C331.36 209.354 329.264 209.913 327.727 211.17C326.05 212.428 325.071 214.245 324.792 216.202L321.577 240.24L337.509 242.336L340.724 218.298C341.003 216.341 340.444 214.245 339.187 212.708C338.208 211.31 336.671 210.332 334.994 209.913Z" fill="#0D2B2B"/>
<path d="M352.603 233.531C352.323 233.392 352.044 233.112 352.044 232.833C352.044 232.413 352.463 232.134 352.882 232.274L424.577 242.057C424.996 242.057 425.276 242.476 425.136 242.895C425.136 243.314 424.717 243.594 424.297 243.454L352.603 233.531Z" fill="#0D2B2B"/>
<path d="M349.248 257.849C348.969 257.709 348.689 257.43 348.689 257.15C348.689 256.731 349.109 256.451 349.528 256.591L421.222 266.374C421.642 266.374 421.921 266.793 421.781 267.212C421.781 267.632 421.362 267.911 420.943 267.771L349.248 257.849C349.388 257.849 349.388 257.849 349.248 257.849Z" fill="#0D2B2B"/>
<path d="M350.925 245.55C350.646 245.41 350.366 245.131 350.366 244.851C350.366 244.432 350.785 244.152 351.205 244.292L382.23 248.485C382.65 248.485 382.929 248.904 382.789 249.323C382.789 249.743 382.37 250.022 381.951 249.882L350.925 245.55C351.065 245.55 351.065 245.55 350.925 245.55Z" fill="#0D2B2B"/>
<path d="M390.057 250.861C389.778 250.721 389.498 250.441 389.498 250.162C389.498 249.743 389.917 249.463 390.337 249.603L422.9 254.075C423.319 254.075 423.598 254.494 423.459 254.913C423.459 255.333 423.039 255.612 422.62 255.472L390.057 250.861C390.197 250.861 390.197 250.861 390.057 250.861Z" fill="#0D2B2B"/>
<path d="M347.432 271.685C347.153 271.545 346.873 271.266 346.873 270.986C346.873 270.567 347.292 270.287 347.712 270.427L378.737 274.62C379.157 274.62 379.436 275.039 379.296 275.458C379.296 275.877 378.877 276.157 378.458 276.017L347.432 271.685Z" fill="#0D2B2B"/>
</g>
<defs>
<clipPath id="clip0_1452_5998">
<rect width="656.99" height="549.099" fill="white"/>
</clipPath>
</defs>
</svg>
