<svg width="16" height="16" viewBox="0 0 16 16" fill="none" xmlns="http://www.w3.org/2000/svg">
<path d="M1.23125 7.05388C0.492165 6.46379 0.909431 5.27241 1.85519 5.27241H5.12088C5.56491 5.27241 5.95576 4.97962 6.08056 4.55349L7.04032 1.27663C7.32107 0.318068 8.67893 0.318071 8.95968 1.27663L9.91944 4.55349C10.0442 4.97962 10.4351 5.27241 10.8791 5.27241H14.173C15.1156 5.27241 15.5347 6.45727 14.8018 7.05L11.9668 9.34246C11.6537 9.59564 11.523 10.0119 11.6351 10.3986L12.6628 13.9413C12.9355 14.8814 11.8347 15.613 11.0736 14.9975L8.62878 13.0205C8.26204 12.724 7.73796 12.724 7.37122 13.0205L4.93772 14.9883C4.17554 15.6047 3.07375 14.8703 3.34926 13.9297L4.39141 10.3715C4.50548 9.982 4.37283 9.56218 4.05566 9.30895L1.23125 7.05388Z" fill="#FEC923"/>
</svg>
