<svg width="269" height="668" viewBox="0 0 269 668" fill="none" xmlns="http://www.w3.org/2000/svg">
<g opacity="0.1">
<path fill-rule="evenodd" clip-rule="evenodd" d="M109.303 470.386C54.5454 302.552 123.684 119.189 275.619 29.3064C154.871 124.19 113.78 288.859 175.811 429.324C237.843 569.79 387.202 650.301 538.615 624.859L503.684 728.355L294.942 657.903C239.665 639.247 186.173 610.933 153.839 562.373C135.22 534.411 120.122 503.584 109.303 470.386Z" fill="#21B8BF"/>
<path fill-rule="evenodd" clip-rule="evenodd" d="M258.247 376.785C193.924 267.951 200.758 131.207 275.619 29.3062C231.513 130.217 245.777 247.115 312.814 334.444C379.852 421.773 489.098 465.706 597.926 449.124L570.946 529.063C445.602 545.531 322.551 485.612 258.247 376.785Z" fill="#21B8BF"/>
</g>
</svg>
