<svg width="364" height="391" viewBox="0 0 364 391" fill="none" xmlns="http://www.w3.org/2000/svg">
<g clip-path="url(#clip0_1011_5001)">
<g opacity="0.1">
<path fill-rule="evenodd" clip-rule="evenodd" d="M123.395 381.464C131.395 217.802 251.98 81.6346 413.467 53.9138C277.375 96.2822 187.295 225.51 194.653 367.841C202.01 510.172 304.928 629.378 444.655 657.373L380.144 735.583L159.03 553.199C133.376 501.274 120.392 442.509 123.395 381.464Z" fill="#21B8BF"/>
<path fill-rule="evenodd" clip-rule="evenodd" d="M283.516 349.53C263.713 233.874 314.85 117.54 413.465 53.9138C341.85 126.849 315.572 232.948 344.839 330.85C374.107 428.752 454.328 502.972 554.194 524.572L504.366 584.981C390.213 557.822 303.305 465.173 283.516 349.53Z" fill="#21B8BF"/>
</g>
</g>
<defs>
<clipPath id="clip0_1011_5001">
<rect width="364" height="391" fill="white"/>
</clipPath>
</defs>
</svg>
