<svg width="322" height="391" viewBox="0 0 322 391" fill="none" xmlns="http://www.w3.org/2000/svg">
<g clip-path="url(#clip0_1011_4999)">
<g opacity="0.1">
<path fill-rule="evenodd" clip-rule="evenodd" d="M198.855 381.488C190.855 217.826 70.2697 81.6585 -91.2167 53.9377C44.8754 96.3061 134.955 225.534 127.597 367.865C120.24 510.196 17.3221 629.402 -122.405 657.397L-57.8937 735.607L163.22 553.223C188.874 501.298 201.858 442.533 198.855 381.488Z" fill="#66C68F"/>
<path fill-rule="evenodd" clip-rule="evenodd" d="M38.7339 349.554C58.5374 233.898 7.40048 117.564 -91.2151 53.9378C-19.6004 126.873 6.67816 232.972 -22.5892 330.874C-51.8566 428.776 -132.078 502.996 -231.944 524.595L-182.116 585.004C-67.9634 557.846 18.9449 465.197 38.7339 349.554Z" fill="#66C68F"/>
</g>
</g>
<defs>
<clipPath id="clip0_1011_4999">
<rect width="322" height="391" fill="white"/>
</clipPath>
</defs>
</svg>
