<svg width="43" height="32" viewBox="0 0 43 32" fill="none" xmlns="http://www.w3.org/2000/svg">
<path d="M19.5455 32H10.75C7.78561 32 5.25252 30.95 3.15073 28.85C1.04894 26.75 -0.00130182 24.1833 1.21099e-06 21.15C1.21099e-06 18.55 0.765531 16.2333 2.29659 14.2C3.82765 12.1667 5.83106 10.8667 8.30682 10.3C9.12121 7.23333 10.75 4.75 13.1932 2.85C15.6364 0.95 18.4053 0 21.5 0C25.3114 0 28.5448 1.35867 31.2004 4.076C33.856 6.79333 35.1831 10.1013 35.1818 14C37.4295 14.2667 39.2948 15.2587 40.7777 16.976C42.2605 18.6933 43.0013 20.7013 43 23C43 25.5 42.1446 27.6253 40.4337 29.376C38.7228 31.1267 36.6464 32.0013 34.2045 32H23.4545V17.7L26.5818 20.8L29.3182 18L21.5 10L13.6818 18L16.4182 20.8L19.5455 17.7V32Z" fill="black"/>
</svg>
