<svg width="23" height="29" viewBox="0 0 23 29" fill="none" xmlns="http://www.w3.org/2000/svg">
<path fill-rule="evenodd" clip-rule="evenodd" d="M9.88172 5.1669C4.57803 5.1669 2.27308 9.96941 2.27308 13.1452C2.27308 15.5171 2.61757 14.8198 1.30421 17.7144C-0.299818 21.8387 6.14976 23.5253 9.88172 23.5253C13.6125 23.5253 20.0633 21.8387 18.4604 17.7144C17.1459 14.8198 17.4904 15.5171 17.4904 13.1452C17.4904 9.96941 15.1842 5.1669 9.88172 5.1669Z" fill="white" stroke="#B3B3B3" stroke-width="2" stroke-linecap="round" stroke-linejoin="round"/>
<path d="M12.6443 26.695C11.0965 28.4247 8.68152 28.445 7.11816 26.695" stroke="#B3B3B3" stroke-width="2" stroke-linecap="round" stroke-linejoin="round"/>
<circle cx="15.9325" cy="6.85441" r="6.08488" fill="#66C68F" stroke="#F7F7F7"/>
<path d="M13.5202 6.46719H14.0622C14.2537 6.46719 14.4114 6.43446 14.535 6.36899C14.6611 6.3011 14.7545 6.20895 14.8151 6.09256C14.8781 5.97375 14.9097 5.83675 14.9097 5.68156C14.9097 5.5288 14.8818 5.39665 14.826 5.28511C14.7702 5.17114 14.6854 5.08385 14.5714 5.02323C14.4599 4.96018 14.3168 4.92866 14.1422 4.92866C14.0016 4.92866 13.8718 4.95655 13.753 5.01232C13.6366 5.06809 13.5433 5.14811 13.473 5.25237C13.4051 5.35421 13.3711 5.47667 13.3711 5.61973H12.4073C12.4073 5.3336 12.4824 5.08264 12.6328 4.86683C12.7855 4.6486 12.9916 4.47765 13.2511 4.35398C13.5105 4.23032 13.8003 4.16849 14.1204 4.16849C14.4696 4.16849 14.7751 4.22668 15.037 4.34307C15.3013 4.45704 15.5062 4.62556 15.6516 4.84864C15.7996 5.07172 15.8735 5.34815 15.8735 5.67792C15.8735 5.83553 15.8359 5.99315 15.7608 6.15076C15.688 6.30595 15.5801 6.44658 15.437 6.57267C15.2964 6.69634 15.123 6.79697 14.9169 6.87456C14.7132 6.94973 14.4793 6.98731 14.215 6.98731H13.5202V6.46719ZM13.5202 7.20918V6.69634H14.215C14.5132 6.69634 14.7714 6.7315 14.9897 6.80182C15.2103 6.86971 15.3922 6.9667 15.5353 7.09279C15.6783 7.21646 15.7838 7.36073 15.8517 7.52562C15.922 7.6905 15.9572 7.86751 15.9572 8.05665C15.9572 8.30398 15.9111 8.52463 15.819 8.71862C15.7268 8.91018 15.5971 9.07264 15.4298 9.206C15.2649 9.33937 15.0709 9.44121 14.8478 9.51153C14.6247 9.57942 14.3835 9.61337 14.124 9.61337C13.8985 9.61337 13.6791 9.58306 13.4657 9.52244C13.2547 9.45939 13.0644 9.36604 12.8947 9.24237C12.7249 9.11628 12.5903 8.95867 12.4909 8.76954C12.3915 8.57798 12.3418 8.35611 12.3418 8.10393H13.3057C13.3057 8.24942 13.3408 8.37915 13.4111 8.49311C13.4839 8.60708 13.5833 8.69679 13.7094 8.76226C13.8379 8.82531 13.9822 8.85683 14.1422 8.85683C14.3192 8.85683 14.4708 8.82531 14.5969 8.76226C14.7254 8.69679 14.8236 8.60465 14.8915 8.48584C14.9594 8.3646 14.9933 8.22032 14.9933 8.05301C14.9933 7.85418 14.9557 7.69293 14.8806 7.56926C14.8054 7.4456 14.6975 7.35467 14.5568 7.29647C14.4186 7.23828 14.2537 7.20918 14.0622 7.20918H13.5202Z" fill="white"/>
<path d="M19.9638 6.61268V7.46742H16.3338V6.61268H19.9638ZM18.6107 5.15417V9.00959H17.6905V5.15417H18.6107Z" fill="white"/>
</svg>
