<svg width="320" height="57" viewBox="0 0 320 57" fill="none" xmlns="http://www.w3.org/2000/svg">
<path d="M6.69331 25.8378C5.13183 24.6961 5.93942 22.2234 7.87378 22.2234H20.3273C21.1972 22.2234 21.9673 21.6611 22.2323 20.8326L26.0951 8.75468C26.6881 6.90034 29.3119 6.90034 29.9049 8.75469L33.7677 20.8326C34.0327 21.6611 34.8028 22.2234 35.6727 22.2234H48.1886C50.1168 22.2234 50.9284 24.6831 49.3789 25.8306L39.2101 33.361C38.5235 33.8694 38.2357 34.7578 38.4937 35.5722L42.3235 47.6634C42.909 49.5121 40.785 51.0287 39.2266 49.8746L29.1902 42.4423C28.4831 41.9187 27.5169 41.9187 26.8098 42.4423L16.7971 49.857C15.2365 51.0128 13.1104 49.4903 13.7019 47.6405L17.5859 35.4963C17.8481 34.6764 17.5563 33.7807 16.8614 33.2726L6.69331 25.8378Z" fill="#FEC923"/>
<path d="M72.6953 25.8378C71.1338 24.6961 71.9414 22.2234 73.8757 22.2234H86.3293C87.1992 22.2234 87.9693 21.6611 88.2342 20.8326L92.097 8.75468C92.6901 6.90034 95.3138 6.90034 95.9069 8.75469L99.7697 20.8326C100.035 21.6611 100.805 22.2234 101.675 22.2234H114.191C116.119 22.2234 116.93 24.6831 115.381 25.8306L105.212 33.361C104.526 33.8694 104.238 34.7578 104.496 35.5722L108.325 47.6634C108.911 49.5121 106.787 51.0287 105.229 49.8746L95.1922 42.4423C94.4851 41.9187 93.5188 41.9187 92.8117 42.4423L82.7991 49.857C81.2384 51.0128 79.1123 49.4903 79.7039 47.6405L83.5879 35.4963C83.8501 34.6764 83.5583 33.7807 82.8634 33.2726L72.6953 25.8378Z" fill="#FEC923"/>
<path d="M138.693 25.8378C137.132 24.6961 137.939 22.2234 139.874 22.2234H152.327C153.197 22.2234 153.967 21.6611 154.232 20.8326L158.095 8.75468C158.688 6.90034 161.312 6.90034 161.905 8.75469L165.768 20.8326C166.033 21.6611 166.803 22.2234 167.673 22.2234H180.189C182.117 22.2234 182.928 24.6831 181.379 25.8306L171.21 33.361C170.524 33.8694 170.236 34.7578 170.494 35.5722L174.323 47.6634C174.909 49.5121 172.785 51.0287 171.227 49.8746L161.19 42.4423C160.483 41.9187 159.517 41.9187 158.81 42.4423L148.797 49.857C147.236 51.0128 145.11 49.4903 145.702 47.6405L149.586 35.4963C149.848 34.6764 149.556 33.7807 148.861 33.2726L138.693 25.8378Z" fill="#FEC923"/>
<path d="M204.695 25.8378C203.134 24.6961 203.941 22.2234 205.876 22.2234H218.329C219.199 22.2234 219.969 21.6611 220.234 20.8326L224.097 8.75468C224.69 6.90034 227.314 6.90034 227.907 8.75469L231.77 20.8326C232.035 21.6611 232.805 22.2234 233.675 22.2234H246.191C248.119 22.2234 248.93 24.6831 247.381 25.8306L237.212 33.361C236.526 33.8694 236.238 34.7578 236.496 35.5722L240.325 47.6634C240.911 49.5121 238.787 51.0287 237.229 49.8746L227.192 42.4423C226.485 41.9187 225.519 41.9187 224.812 42.4423L214.799 49.857C213.238 51.0128 211.112 49.4903 211.704 47.6405L215.588 35.4963C215.85 34.6764 215.558 33.7807 214.863 33.2726L204.695 25.8378Z" fill="#FEC923"/>
<path d="M270.693 25.8378C269.132 24.6961 269.939 22.2234 271.874 22.2234H284.327C285.197 22.2234 285.967 21.6611 286.232 20.8326L290.095 8.75468C290.688 6.90034 293.312 6.90034 293.905 8.75469L297.768 20.8326C298.033 21.6611 298.803 22.2234 299.673 22.2234H312.189C314.117 22.2234 314.928 24.6831 313.379 25.8306L303.21 33.361C302.524 33.8694 302.236 34.7578 302.494 35.5722L306.323 47.6634C306.909 49.5121 304.785 51.0287 303.227 49.8746L293.19 42.4423C292.483 41.9187 291.517 41.9187 290.81 42.4423L280.797 49.857C279.236 51.0128 277.11 49.4903 277.702 47.6405L281.586 35.4963C281.848 34.6764 281.556 33.7807 280.861 33.2726L270.693 25.8378Z" fill="#FEC923"/>
</svg>
