<svg width="14" height="12" viewBox="0 0 14 12" fill="none" xmlns="http://www.w3.org/2000/svg">
<path d="M11.8 2.36364H10.0078L9.1192 1.10114C9.09732 1.07008 9.0677 1.04461 9.03296 1.02697C8.99822 1.00933 8.95942 1.00007 8.92 1H5.08C5.04058 1.00007 5.00178 1.00933 4.96704 1.02697C4.9323 1.04461 4.90268 1.07008 4.8808 1.10114L3.991 2.36364H2.2C1.88174 2.36364 1.57652 2.48336 1.35147 2.69647C1.12643 2.90958 1 3.19862 1 3.5V9.86364C1 10.165 1.12643 10.4541 1.35147 10.6672C1.57652 10.8803 1.88174 11 2.2 11H11.8C12.1183 11 12.4235 10.8803 12.6485 10.6672C12.8736 10.4541 13 10.165 13 9.86364V3.5C13 3.19862 12.8736 2.90958 12.6485 2.69647C12.4235 2.48336 12.1183 2.36364 11.8 2.36364ZM12.52 9.86364C12.52 10.0445 12.4441 10.2179 12.3091 10.3458C12.1741 10.4736 11.991 10.5455 11.8 10.5455H2.2C2.00904 10.5455 1.82591 10.4736 1.69088 10.3458C1.55586 10.2179 1.48 10.0445 1.48 9.86364V3.5C1.48 3.31917 1.55586 3.14575 1.69088 3.01788C1.82591 2.89002 2.00904 2.81818 2.2 2.81818H4.12C4.15952 2.81821 4.19844 2.80899 4.23329 2.79134C4.26815 2.7737 4.29787 2.74818 4.3198 2.71705L5.2078 1.45455H8.791L9.6802 2.71705C9.70214 2.74818 9.73185 2.7737 9.76671 2.79134C9.80156 2.80899 9.84048 2.81821 9.88 2.81818H11.8C11.991 2.81818 12.1741 2.89002 12.3091 3.01788C12.4441 3.14575 12.52 3.31917 12.52 3.5V9.86364ZM7 4.18182C6.52532 4.18182 6.06131 4.31511 5.66663 4.56484C5.27195 4.81457 4.96434 5.16952 4.78269 5.58481C4.60104 6.0001 4.55351 6.45707 4.64612 6.89793C4.73872 7.3388 4.9673 7.74376 5.30294 8.06161C5.63859 8.37945 6.06623 8.59591 6.53178 8.6836C6.99734 8.7713 7.4799 8.72629 7.91844 8.55427C8.35698 8.38225 8.73181 8.09095 8.99553 7.71721C9.25924 7.34346 9.4 6.90405 9.4 6.45455C9.4 5.85178 9.14714 5.2737 8.69706 4.84748C8.24697 4.42127 7.63652 4.18182 7 4.18182ZM7 8.27273C6.62026 8.27273 6.24905 8.16609 5.93331 7.96631C5.61756 7.76652 5.37147 7.48256 5.22615 7.15033C5.08083 6.8181 5.04281 6.45253 5.11689 6.09984C5.19098 5.74714 5.37384 5.42317 5.64235 5.1689C5.91087 4.91462 6.25298 4.74145 6.62543 4.6713C6.99787 4.60114 7.38392 4.63715 7.73475 4.77476C8.08559 4.91238 8.38545 5.14542 8.59642 5.44442C8.80739 5.74342 8.92 6.09494 8.92 6.45455C8.92 6.93676 8.71771 7.39922 8.35764 7.74019C7.99757 8.08117 7.50922 8.27273 7 8.27273Z" fill="black" stroke="black" stroke-width="0.5"/>
</svg>
