<svg width="152" height="150" viewBox="0 0 152 150" fill="none" xmlns="http://www.w3.org/2000/svg">
<path opacity="0.1" fill-rule="evenodd" clip-rule="evenodd" d="M72.0924 0C114.761 0 151.187 32.7076 151.187 75.3759C151.187 117.842 114.559 150 72.0924 150C31.5718 150 0 115.897 0 75.3759C0 34.6436 31.3601 0 72.0924 0Z" fill="#66C68F"/>
<path d="M109.714 103.66L96.9939 90.9411C95.4539 89.4012 93.1893 89.0416 91.3017 89.8468L83.3911 81.4607C87.949 76.7945 90.7612 70.4175 90.7612 63.3806C90.7612 49.0871 79.1736 37.5 64.8806 37.5C50.5871 37.5 39 49.0876 39 63.3806C39 77.674 50.5876 89.2612 64.8806 89.2612C70.8304 89.2612 76.3074 87.2483 80.6786 83.8728L88.6868 92.3614C87.7576 94.2888 88.0715 96.6654 89.6704 98.2644L102.39 110.984C104.411 113.005 107.691 113.005 109.712 110.984L109.714 110.982C111.736 108.961 111.736 105.681 109.714 103.66L109.714 103.66ZM78.7826 78.7845C75.1032 82.1075 70.2294 84.1317 64.8809 84.1317C59.5324 84.1317 54.6586 82.1075 50.9792 78.7851V77.754C50.9792 75.0038 51.8103 72.4423 53.2421 70.3036C55.4562 66.9761 59.1192 64.6621 63.3542 64.2088C59.3723 63.4746 56.3505 59.9338 56.3505 55.6664C56.3505 50.868 60.1697 46.9778 64.8809 46.9778C69.5921 46.9778 73.4114 50.868 73.4114 55.6664C73.4114 59.9319 70.3908 63.4721 66.4109 64.2076C69.6383 64.555 72.5341 65.9817 74.7102 68.1148C77.2281 70.5776 78.7827 73.9886 78.7827 77.754L78.7834 78.7845L78.7826 78.7845Z" fill="#66C68F"/>
</svg>
