<svg width="132" height="150" viewBox="0 0 132 150" fill="none" xmlns="http://www.w3.org/2000/svg">
<path opacity="0.1" fill-rule="evenodd" clip-rule="evenodd" d="M56.7037 0C97.6847 0 131.445 32.6792 131.445 73.6602C131.445 115.382 98.4259 150 56.7037 150C19.5668 150 0 110.797 0 73.6602C0 37.358 20.4015 0 56.7037 0Z" fill="#21B8BF"/>
<path d="M51.7754 105C55.6278 102.835 64.0626 95.4351 66.9823 83.1543C70.632 67.8032 73.0651 55.9947 84.6223 49.5" stroke="#21B8BF" stroke-linecap="round"/>
<path d="M11 63.0567C11 60.9668 11 58.8865 11 56.7966C11.0289 56.7292 11.077 56.6521 11.0867 56.5847C11.4912 54.1481 12.801 52.3664 15.0257 51.3359C15.8058 50.9699 16.7015 50.864 17.549 50.6328C29.6165 50.6328 41.6937 50.6328 53.7612 50.6328C53.8864 50.6617 54.0116 50.6906 54.1368 50.7099C56.7179 51.0566 58.5767 52.4049 59.6842 54.7548C59.9828 55.3905 60.108 56.1128 60.3199 56.7966C60.3199 58.8865 60.3199 60.9668 60.3199 63.0567C60.1176 63.7405 60.0021 64.4724 59.6939 65.1177C58.3744 67.8529 56.169 69.2301 53.1256 69.2301C43.7547 69.2397 34.3838 69.2301 25.0033 69.2205C24.647 69.2205 24.4062 69.2975 24.1943 69.5961C23.8187 70.1161 23.4046 70.6073 23.0001 71.1081C21.7288 72.6587 19.8026 72.6298 18.5795 71.0407C18.175 70.5206 17.7994 69.9813 17.3853 69.4709C17.2601 69.3168 17.0386 69.1819 16.846 69.1434C14.4286 68.7004 12.6758 67.3713 11.6453 65.1562C11.3371 64.5013 11.2119 63.7597 11 63.0567ZM35.7033 55.5446C30.4255 55.5446 25.1478 55.5446 19.8604 55.5446C19.6871 55.5446 19.5041 55.5349 19.3307 55.5542C18.5699 55.6024 17.9728 56.2187 17.9535 56.9603C17.9343 57.6826 18.4928 58.3183 19.2344 58.4146C19.427 58.4435 19.6197 58.4338 19.8123 58.4338C30.3678 58.4338 40.9329 58.4338 51.4883 58.4338C51.6617 58.4338 51.8447 58.4435 52.018 58.4242C52.6248 58.3664 53.116 57.9619 53.2797 57.3937C53.5686 56.4017 52.8559 55.5446 51.7387 55.5446C46.3936 55.5446 41.0484 55.5446 35.7033 55.5446ZM25.9664 64.2317C25.9664 64.222 25.9664 64.222 25.9664 64.2317C28.1623 64.2317 30.3581 64.2413 32.554 64.222C33.3726 64.2124 33.9697 63.6249 33.9986 62.8448C34.0275 62.1129 33.4785 61.4772 32.6984 61.3616C32.5058 61.3328 32.3132 61.3424 32.1206 61.3424C29.2506 61.3424 26.3806 61.3424 23.5105 61.3424C22.2007 61.3424 20.8813 61.3327 19.5715 61.3424C18.8107 61.3424 18.2617 61.6987 18.0498 62.2958C17.7031 63.2686 18.3869 64.222 19.4752 64.222C21.6422 64.2413 23.7995 64.2317 25.9664 64.2317Z" fill="#21B8BF"/>
<path d="M15.1419 88.0011C14.3618 87.6062 14.2269 87.3654 14.3714 86.4794C14.5448 85.42 14.7277 84.3606 14.9204 83.3012C14.9781 83.0123 14.93 82.8004 14.6988 82.5789C13.8899 81.818 13.1098 81.0283 12.3104 80.2674C11.9637 79.9304 11.7422 79.5548 11.8866 79.0732C12.0407 78.582 12.426 78.4087 12.9171 78.3413C13.9862 78.1968 15.0456 78.0234 16.105 77.8886C16.4709 77.8405 16.7021 77.7153 16.8658 77.3589C17.3185 76.3669 17.8289 75.4038 18.3008 74.4215C18.5127 73.9785 18.8112 73.6703 19.3217 73.6799C19.8129 73.6895 20.1018 73.9977 20.304 74.4215C20.7856 75.4135 21.3057 76.3958 21.7583 77.3974C21.922 77.7538 22.1532 77.8405 22.4903 77.8886C23.5882 78.0331 24.6765 78.2064 25.7744 78.3605C26.227 78.4279 26.5641 78.6302 26.7086 79.0732C26.8627 79.5259 26.6797 79.8822 26.3619 80.2C25.5336 81.009 24.715 81.818 23.8771 82.6174C23.6845 82.8004 23.6267 82.9641 23.6749 83.2434C23.8771 84.2932 24.0408 85.3622 24.2238 86.4216C24.3875 87.3654 24.2527 87.6351 23.4245 88.0107C23.3281 88.0107 23.2318 88.0107 23.1355 88.0107C21.9702 87.4039 20.8145 86.7972 19.6491 86.2097C19.4758 86.123 19.2061 86.0941 19.0424 86.1712C17.8578 86.7587 16.6924 87.3847 15.5271 88.0011C15.4019 88.0011 15.2671 88.0011 15.1419 88.0011Z" fill="#21B8BF"/>
<path d="M47.8867 88.0008C47.0681 87.6252 46.9236 87.3555 47.0873 86.4598C47.2703 85.3908 47.434 84.3122 47.6363 83.2335C47.6844 82.9542 47.6267 82.7905 47.434 82.6075C46.625 81.837 45.8257 81.0376 45.0167 80.2575C44.67 79.9301 44.4388 79.5641 44.6026 79.0633C44.7663 78.5721 45.1515 78.3988 45.6331 78.3314C46.7021 78.1869 47.7615 78.0135 48.8209 77.8787C49.1869 77.8306 49.418 77.7053 49.5817 77.3394C50.0344 76.3474 50.5448 75.3843 51.0167 74.4019C51.219 73.9782 51.5079 73.67 51.9991 73.6604C52.5095 73.6507 52.8081 73.9686 53.02 74.4019C53.4919 75.3843 54.0023 76.3474 54.455 77.3394C54.6187 77.6957 54.8498 77.8209 55.2158 77.8691C56.2945 78.0039 57.3731 78.1869 58.4518 78.3314C58.9237 78.3988 59.2897 78.5914 59.4341 79.0537C59.5786 79.516 59.386 79.8916 59.0489 80.219C58.2399 80.9991 57.4502 81.7985 56.6316 82.5593C56.4004 82.7808 56.3523 82.9927 56.41 83.2816C56.6027 84.341 56.7857 85.4004 56.959 86.4598C57.1035 87.3459 56.9686 87.5867 56.1885 87.9815C56.0633 87.9815 55.9285 87.9815 55.8033 87.9815C54.638 87.3651 53.4726 86.7391 52.288 86.142C52.1339 86.065 51.8546 86.0939 51.6813 86.1805C50.5063 86.768 49.3506 87.3748 48.1949 87.9815C48.0793 88.0008 47.983 88.0008 47.8867 88.0008Z" fill="#21B8BF"/>
<path d="M31.5137 88.0008C30.7144 87.6252 30.5795 87.3652 30.724 86.4888C30.907 85.4005 31.1092 84.3122 31.2633 83.2143C31.2922 83.0313 31.2055 82.7713 31.0803 82.6364C30.281 81.8274 29.4623 81.0281 28.6341 80.248C28.2777 79.9109 28.0755 79.5353 28.2392 79.0441C28.3933 78.5722 28.7689 78.3988 29.2312 78.341C30.3099 78.1966 31.3885 78.0232 32.4672 77.8788C32.8043 77.8306 33.0354 77.715 33.1895 77.378C33.6421 76.386 34.1526 75.4229 34.6245 74.4405C34.8364 74.0071 35.1253 73.6797 35.6357 73.6797C36.1462 73.6797 36.4351 74.0071 36.647 74.4405C37.1189 75.4229 37.6293 76.386 38.082 77.378C38.2361 77.7247 38.4672 77.8402 38.8043 77.8788C39.9022 78.0232 40.9905 78.1966 42.0885 78.3507C42.5411 78.4085 42.8878 78.6011 43.0323 79.0441C43.1864 79.5064 43.013 79.882 42.6759 80.2094C41.8573 80.9992 41.0483 81.8082 40.2201 82.5883C40.0082 82.7905 39.9504 82.9735 40.0082 83.2624C40.2104 84.3218 40.3742 85.3812 40.5571 86.4406C40.7112 87.3748 40.586 87.606 39.777 87.9912C39.6518 87.9912 39.517 87.9912 39.3918 87.9912C38.2168 87.3748 37.0515 86.7488 35.8765 86.1421C35.7513 86.0747 35.5298 86.0747 35.395 86.1421C34.22 86.7488 33.0547 87.3748 31.8797 87.9912C31.7738 88.0008 31.6389 88.0008 31.5137 88.0008Z" fill="#21B8BF"/>
<circle cx="95.5859" cy="88.5" r="23.5" fill="#21B8BF"/>
<path fill-rule="evenodd" clip-rule="evenodd" d="M82.0859 99.7857C82.0859 100.374 82.3212 100.936 82.7395 101.351C83.1578 101.766 83.7257 102 84.3167 102H108.855C109.446 102 110.014 101.766 110.432 101.351C110.807 100.979 111.036 100.488 111.078 99.9674L111.086 99.7857C111.086 94.2821 106.592 89.8214 101.047 89.8214H92.1244C86.5799 89.8214 82.0859 94.2821 82.0859 99.7857ZM96.5859 71C91.9693 71 88.2206 74.721 88.2206 79.3036C88.2206 83.8861 91.9693 87.6071 96.5859 87.6071C101.203 87.6071 104.951 83.8861 104.951 79.3036C104.951 74.721 101.203 71 96.5859 71Z" fill="white"/>
</svg>
