<svg width="138" height="150" viewBox="0 0 138 150" fill="none" xmlns="http://www.w3.org/2000/svg">
<path opacity="0.1" fill-rule="evenodd" clip-rule="evenodd" d="M65.5352 0C105.787 0 137.475 33.5607 137.475 73.8122C137.475 114.733 106.456 150 65.5352 150C26.2891 150 0 113.058 0 73.8122C0 35.2647 26.9877 0 65.5352 0Z" fill="#21B8BF"/>
<path d="M98.6974 61.7852C97.0542 57.8633 94.6636 54.2985 91.6589 51.2896C88.6631 48.2755 85.1046 45.879 81.1852 44.2364C77.1702 42.5455 72.8562 41.6787 68.4997 41.6876H68.3532C63.922 41.7095 59.6374 42.5884 55.6017 44.317C51.716 45.9764 48.1909 48.3771 45.2233 51.3848C42.2477 54.387 39.8845 57.9393 38.2653 61.8438C36.5845 65.9041 35.7328 70.2595 35.7604 74.6539C35.7824 79.7369 36.9982 84.7833 39.2687 89.295V100.428C39.2687 102.288 40.7775 103.797 42.6305 103.797H53.7487C58.2815 106.084 63.2834 107.288 68.3605 107.313H68.5143C72.8942 107.313 77.1349 106.463 81.1339 104.8C85.0335 103.177 88.5787 100.809 91.571 97.8277C94.5885 94.8321 96.9616 91.3311 98.6242 87.4273C100.345 83.3843 101.224 79.085 101.246 74.6466C101.261 70.1861 100.397 65.8575 98.6974 61.7852ZM53.8805 78.0157C51.9469 78.0157 50.3722 76.441 50.3722 74.5001C50.3722 72.5591 51.9469 70.9844 53.8805 70.9844C55.8141 70.9844 57.3888 72.5591 57.3888 74.5001C57.3888 76.441 55.8214 78.0157 53.8805 78.0157ZM68.4997 78.0157C66.5661 78.0157 64.9914 76.441 64.9914 74.5001C64.9914 72.5591 66.5661 70.9844 68.4997 70.9844C70.4333 70.9844 72.008 72.5591 72.008 74.5001C72.008 76.441 70.4333 78.0157 68.4997 78.0157ZM83.1188 78.0157C81.1852 78.0157 79.6105 76.441 79.6105 74.5001C79.6105 72.5591 81.1852 70.9844 83.1188 70.9844C85.0524 70.9844 86.6271 72.5591 86.6271 74.5001C86.6271 76.441 85.0524 78.0157 83.1188 78.0157Z" fill="#21B8BF"/>
</svg>
