<svg width="138" height="150" viewBox="0 0 138 150" fill="none" xmlns="http://www.w3.org/2000/svg">
<path opacity="0.1" fill-rule="evenodd" clip-rule="evenodd" d="M58.2308 0C104.542 0 137.982 41.4537 137.982 87.765C137.982 127.271 97.7365 150 58.2308 150C24.9467 150 0 121.049 0 87.765C0 46.6328 17.0985 0 58.2308 0Z" fill="#66C68F"/>
<path d="M31 74.3035C31.1904 72.9851 31.3369 71.6521 31.5713 70.3337C32.7578 63.5515 35.6582 57.5603 40.0674 52.2869C40.2578 52.0525 40.4629 51.8181 40.7559 51.4519C40.2725 51.4519 39.9355 51.4666 39.6133 51.4519C38.4121 51.3787 37.5186 50.4119 37.5332 49.2253C37.5479 48.0681 38.4268 47.1013 39.5986 47.072C41.752 47.0281 43.8906 47.0281 46.0439 47.072C47.2158 47.0867 48.0947 48.0388 48.1094 49.2253C48.1387 51.3054 48.1387 53.3709 48.1094 55.4509C48.0947 56.7107 47.1572 57.6482 45.9414 57.6482C44.7256 57.6628 43.7881 56.74 43.7295 55.4802C43.7148 55.3044 43.7295 55.1433 43.7295 54.7625C43.3779 55.1726 43.1289 55.4509 42.8945 55.7439C37.7529 62.2771 34.999 69.6453 35.4238 77.9949C35.9951 88.4539 40.6387 96.8621 48.9883 103.161C53.749 106.75 59.1543 108.844 65.0869 109.416C74.2129 110.309 82.3867 107.819 89.5205 102.077C95.4531 97.3015 99.335 91.1638 101.063 83.7224C101.283 82.7996 101.43 81.8621 101.576 80.9246C101.781 79.6501 102.396 78.9177 103.48 78.7273C104.477 78.5662 105.297 79.0789 105.883 80.2214C105.897 80.2654 105.956 80.28 105.985 80.3093C105.985 80.7048 105.985 81.0857 105.985 81.4812C105.839 82.199 105.692 82.9021 105.561 83.6199C102.719 98.6345 90.0479 110.969 74.9453 113.415C73.5244 113.649 72.1035 113.796 70.6826 114.001C69.1738 114.001 67.6504 114.001 66.1416 114.001C65.9805 113.957 65.8193 113.898 65.6582 113.884C59.1396 113.385 53.1484 111.349 47.7578 107.673C38.9541 101.667 33.4902 93.4197 31.5566 82.9021C31.3223 81.5544 31.1904 80.1921 31 78.8445C31 77.3357 31 75.8123 31 74.3035Z" fill="#66C68F"/>
<path d="M106 72.6905C105.224 73.9942 104.433 74.4922 103.422 74.2579C102.162 73.9795 101.708 73.0567 101.532 71.8702C101.122 69.1016 100.097 66.5235 99.0568 63.9454C98.8664 63.462 98.7345 62.9053 98.7638 62.3926C98.8371 61.4258 99.6427 60.6641 100.566 60.5323C101.547 60.3858 102.499 60.8545 102.909 61.792C104.184 64.7657 105.341 67.7979 105.868 71.0206C105.898 71.1817 105.956 71.3428 106.015 71.5039C106 71.9141 106 72.295 106 72.6905Z" fill="#66C68F"/>
<path d="M64.6916 39C64.7209 39.0439 64.7355 39.0879 64.7795 39.1025C65.9367 39.7031 66.4348 40.5088 66.2883 41.5049C66.1271 42.5596 65.3508 43.2188 64.091 43.4092C61.2785 43.8193 58.6125 44.7568 56.0051 45.8555C54.9064 46.3096 53.9982 46.1777 53.3098 45.4746C52.2111 44.3467 52.592 42.5596 54.0861 41.915C57.0012 40.6699 59.9895 39.6152 63.1389 39.1318C63.2268 39.1172 63.3 39.0439 63.3879 39.0146C63.8127 39 64.2521 39 64.6916 39Z" fill="#66C68F"/>
<path d="M73.6258 39C75.1785 39.3955 76.7459 39.7031 78.2693 40.1865C79.8221 40.6699 81.3455 41.2705 82.8543 41.8857C84.1141 42.3984 84.6414 43.6582 84.1434 44.8154C83.66 45.9287 82.4295 46.4414 81.199 45.9434C78.3719 44.7861 75.5154 43.7607 72.4686 43.3506C71.5311 43.2188 70.8572 42.4277 70.7107 41.5195C70.5643 40.626 71.0184 39.7471 71.8826 39.2637C72.0291 39.1904 72.1609 39.0879 72.2928 39C72.7469 39 73.1863 39 73.6258 39Z" fill="#66C68F"/>
<path d="M68.5 49.9863C83.0313 49.9863 95.0283 61.9834 95.0137 76.5146C94.999 91.0605 82.9873 103.043 68.4707 103.014C53.9541 102.984 42.001 91.0312 41.9863 76.5146C41.9717 61.9834 53.9688 49.9863 68.5 49.9863ZM58.3926 83.0918C58.3633 83.0332 58.3193 82.9746 58.2901 82.916C58.7149 82.4912 59.1104 82.0225 59.5645 81.6416C60.8535 80.5576 62.2158 79.5615 63.461 78.4336C65.4092 76.6758 66.4053 74.4639 66.3027 71.7979C66.1856 68.3262 63.2412 65.5137 59.7549 65.499C56.2539 65.4844 53.2949 68.2676 53.1338 71.7246C53.0752 73.1455 53.8955 74.1855 55.1699 74.2734C56.4297 74.3613 57.3965 73.4385 57.5137 72.0176C57.5869 71.0801 58.041 70.4062 58.9199 70.0547C60.5606 69.3955 62.1426 70.7871 61.8789 72.6621C61.6885 74.083 60.7803 75.0205 59.7402 75.8701C58.4805 76.9102 57.1475 77.877 55.9463 78.9609C54.2031 80.5283 53.2217 82.5059 53.1338 84.8643C53.0752 86.5488 53.9541 87.457 55.6387 87.4717C58.3486 87.4717 61.0586 87.4717 63.7686 87.4717C65.3067 87.4717 66.3174 86.5928 66.3027 85.2598C66.2881 83.9268 65.292 83.0918 63.7246 83.0771C61.9375 83.0918 60.1651 83.0918 58.3926 83.0918ZM75.0918 74.2734C75.0918 72.0762 75.1065 69.9375 75.0918 67.7988C75.0772 66.4951 74.1397 65.5283 72.9092 65.5283C71.6787 65.5283 70.7119 66.4805 70.7119 67.7842C70.6973 70.6699 70.6973 73.541 70.7119 76.4268C70.7119 77.7891 71.6494 78.6973 73.0264 78.7119C74.8135 78.7266 76.5859 78.7119 78.3731 78.7119C78.7246 78.7119 79.0908 78.7119 79.501 78.7119C79.501 80.9385 79.4863 83.0771 79.501 85.2158C79.5156 86.5195 80.4531 87.4863 81.6836 87.4863C82.9141 87.501 83.8809 86.5342 83.8809 85.2305C83.8955 79.4004 83.8809 73.5703 83.8809 67.7402C83.8809 67.623 83.8809 67.4912 83.8516 67.374C83.6758 66.3486 82.8115 65.5723 81.7861 65.5137C80.7754 65.4551 79.8819 66.0996 79.5889 67.0957C79.501 67.418 79.4863 67.7695 79.4863 68.1064C79.4717 70.1426 79.4863 72.1934 79.4863 74.2734C78.0069 74.2734 76.6006 74.2734 75.0918 74.2734Z" fill="#66C68F"/>
<path d="M89.8135 46.0469C90.2676 46.252 90.7803 46.3984 91.1612 46.6914C93.8272 48.6982 96.1563 51.042 98.1778 53.6934C98.9688 54.7334 98.8223 56.0811 97.8848 56.8281C96.918 57.5898 95.5704 57.458 94.7647 56.4326C92.9044 54.0596 90.8096 51.9502 88.4219 50.0898C87.5723 49.4307 87.338 48.4785 87.7042 47.541C88.0411 46.6914 88.8321 46.1641 89.8135 46.0469Z" fill="#66C68F"/>
</svg>
