<svg width="141" height="150" viewBox="0 0 141 150" fill="none" xmlns="http://www.w3.org/2000/svg">
<path opacity="0.1" fill-rule="evenodd" clip-rule="evenodd" d="M63.6785 0C105.676 0 140.82 32.9317 140.82 74.9291C140.82 116.965 105.715 150 63.6785 150C25.235 150 0 113.373 0 74.9291C0 36.5278 25.2772 0 63.6785 0Z" fill="#66C68F"/>
<path d="M89.9914 69.4116C90.8824 69.4116 91.6926 69.4924 92.5835 69.5737L92.5829 52.4032C92.5829 46.9766 88.1282 42.522 82.7018 42.522H76.3843V40.0921C76.3843 38.6345 75.2504 37.5 73.7922 37.5C72.3346 37.5 71.2001 38.6339 71.2001 40.0921V42.522H53.3816V40.0921C53.3816 38.6345 52.2478 37.5 50.7896 37.5C49.332 37.5 48.1975 38.6339 48.1975 40.0921V42.522H41.9609C36.4548 42.522 32 46.9762 32 52.4032V86.2584C32 91.6849 36.4548 96.1395 41.8812 96.1395H65.9362C65.8554 95.2486 65.774 94.4384 65.774 93.5475C65.8548 80.2646 76.7084 69.4115 89.991 69.4115L89.9914 69.4116ZM37.1838 57.5056V52.4842C37.1838 49.8921 39.2895 47.7057 41.9623 47.7057H48.1989V50.1357C48.1989 51.5932 49.3328 52.7277 50.791 52.7277C52.2486 52.7277 53.3831 51.5938 53.3831 50.1357V47.7057H71.2016V50.1357C71.2016 51.5932 72.3354 52.7277 73.7936 52.7277C75.2512 52.7277 76.3857 51.5938 76.3857 50.1357V47.7057H82.7032C85.2953 47.7057 87.4008 49.8114 87.4008 52.4842V57.5056H37.1838Z" fill="#66C68F"/>
<path d="M89.9915 74.5938C79.5436 74.5938 71.0391 83.0982 71.0391 93.5462C71.0391 103.994 79.5435 112.499 89.9915 112.499C100.439 112.499 108.944 103.994 108.944 93.5462C108.944 83.0982 100.439 74.5938 89.9915 74.5938ZM97.1184 96.1379H89.9909C88.5333 96.1379 87.3988 95.0041 87.3988 93.5459L87.3994 84.7178C87.3994 83.2602 88.5333 82.1257 89.9915 82.1257C91.449 82.1257 92.5835 83.2596 92.5835 84.7178V90.9544H97.119C98.5766 90.9544 99.7111 92.0883 99.7111 93.5465C99.7105 95.004 98.5766 96.1379 97.1184 96.1379Z" fill="#66C68F"/>
</svg>
