<svg width="138" height="150" viewBox="0 0 138 150" fill="none" xmlns="http://www.w3.org/2000/svg">
<path opacity="0.1" fill-rule="evenodd" clip-rule="evenodd" d="M76.1052 0C111.964 0 137.112 32.7669 137.112 68.6258C137.112 108.343 115.823 150 76.1052 150C32.5941 150 0 112.137 0 68.6258C0 28.6061 36.0855 0 76.1052 0Z" fill="#21B8BF"/>
<path d="M15 67.4437C15.1548 66.6408 15.416 65.9056 16.0448 65.3252C16.9057 64.5416 17.9408 64.4255 19.0339 64.5609C22.7002 65.0156 25.4669 67.7242 26.0376 71.3905C26.2891 73.0447 26.5987 74.6892 26.8502 76.3434C26.9179 76.7788 27.063 76.9045 27.5177 76.9045C33.6218 76.8852 39.7355 76.8948 45.8396 76.8852C46.5941 76.8852 47.3583 76.8755 48.1129 76.8948C48.4224 76.9045 48.5579 76.8271 48.6062 76.4885C48.9061 74.6119 49.1866 72.7352 49.5542 70.8682C50.3088 67.0761 53.7913 64.3191 57.506 64.5223C58.9957 64.5996 60.1759 65.6831 60.3887 67.1632C60.3984 67.2599 60.4468 67.347 60.4661 67.434C60.4661 67.5308 60.4661 67.6275 60.4661 67.7242C60.4371 67.8306 60.3984 67.937 60.379 68.0435C60.1565 69.4655 59.1021 70.4812 57.6704 70.6457C56.1226 70.8295 55.7841 71.1584 55.4939 72.7158C55.4745 72.8222 55.4552 72.9383 55.4358 73.0447C55.1746 74.6506 54.9231 76.2564 54.6329 77.8525C54.0622 80.9674 51.5664 83.0473 48.3644 83.0666C45.3946 83.086 42.4344 83.0666 39.4646 83.0666C39.2808 83.0666 39.097 83.0666 38.9229 83.0666C38.9036 83.1537 38.8939 83.173 38.8939 83.1827C39.0874 85.1561 39.2712 87.1295 39.484 89.0933C39.4937 89.1997 39.7065 89.3351 39.8419 89.3545C40.6545 89.4706 41.4767 89.5286 42.2797 89.6737C43.8661 89.9542 45.4333 90.3315 46.7876 91.2892C48.4321 92.4597 48.4611 94.201 46.865 95.4199C45.6558 96.3389 44.2144 96.7258 42.7537 97.0063C41.6025 97.2288 40.432 97.3449 39.2712 97.4997C38.2361 97.4997 37.2107 97.4997 36.1756 97.4997C36.0015 97.4707 35.8273 97.432 35.6532 97.4126C34.028 97.2965 32.4029 97.0837 30.8744 96.5226C30.0232 96.2131 29.1719 95.8165 28.4464 95.2844C27.063 94.259 27.0437 92.6338 28.369 91.5504C28.93 91.0861 29.6072 90.7378 30.2843 90.4573C31.9579 89.7801 33.7185 89.5093 35.5081 89.3835C35.8467 89.3642 35.9724 89.2674 36.0015 88.9095C36.0885 87.768 36.2336 86.6362 36.34 85.4947C36.4174 84.7015 36.4852 83.9082 36.5722 83.0666C36.3207 83.0666 36.1272 83.0666 35.9338 83.0666C32.9833 83.0666 30.0328 83.0763 27.0824 83.0666C23.8707 83.0473 21.3749 80.9674 20.8139 77.8622C20.485 76.0532 20.2044 74.2443 19.9142 72.4353C19.7401 71.3422 19.208 70.8198 18.1149 70.694C17.9892 70.6747 17.8634 70.6553 17.728 70.6457C16.9154 70.5586 16.2769 70.1717 15.7449 69.5719C15.2902 69.0495 15.1451 68.3917 15 67.7339C15 67.6372 15 67.5404 15 67.4437Z" fill="#21B8BF"/>
<path d="M44.4096 48C45.3963 48.2225 46.3057 48.5998 46.9925 49.3833C47.6696 50.1572 48.0276 51.0569 48.0372 52.0726C48.0566 53.572 48.0566 55.0714 47.9985 56.5708C47.9212 58.6313 46.1509 60.3919 43.7905 60.3919C42.2717 60.3919 40.7627 60.3919 39.2439 60.3919C39.0988 60.3919 38.9634 60.3919 38.7892 60.3919C38.7892 61.0884 38.7892 61.7366 38.7892 62.4524C38.9924 62.4524 39.1859 62.4524 39.3697 62.4524C42.1557 62.4524 44.9513 62.4524 47.7374 62.4524C48.695 62.4524 49.585 62.6459 50.3783 63.2166C51.1908 63.8067 51.2682 64.4355 50.533 65.132C49.4883 66.1187 48.5886 67.2312 48.1146 68.5855C47.7083 69.7657 47.4858 71.0039 47.2053 72.2228C47.0892 72.7355 47.0312 73.2675 46.9248 73.7899C46.7797 74.5541 46.4604 74.825 45.6672 74.825C43.6647 74.8347 41.672 74.825 39.6695 74.825C36.4095 74.825 33.1592 74.825 29.8992 74.825C28.9221 74.825 28.6513 74.5928 28.4675 73.6351C28.2063 72.2808 28.0225 70.8975 27.6742 69.5625C27.2583 67.9277 26.3489 66.5347 25.1397 65.3545C25.014 65.2288 24.8785 65.1127 24.7625 64.9869C24.2401 64.4355 24.2981 63.7874 24.8979 63.323C25.7202 62.6749 26.6778 62.4427 27.7032 62.4427C30.4796 62.4427 33.2462 62.4427 36.0226 62.4427C36.216 62.4427 36.4095 62.4427 36.6417 62.4427C36.6417 61.7656 36.6417 61.1175 36.6417 60.3823C36.4869 60.3823 36.3225 60.3823 36.1483 60.3823C34.6489 60.3823 33.1495 60.3919 31.6501 60.3823C29.5993 60.3629 28.0708 59.1924 27.5388 57.2287C27.4517 56.9191 27.4034 56.5902 27.413 56.2806C27.4227 54.6748 27.3937 53.0593 27.4904 51.4535C27.5872 49.8864 29.0866 48.416 30.7311 48.0967C30.8375 48.0774 30.9439 48.0387 31.0503 48.0097C35.5099 48 39.9597 48 44.4096 48Z" fill="#21B8BF"/>
<path d="M84 79.1426C84 78.9492 84 78.7559 84 78.5625C84.0193 78.3885 84.0387 78.2145 84.0677 78.0404C84.2997 76.5516 84.3674 75.0144 84.8121 73.5835C86.9294 66.7772 91.483 62.417 98.3763 60.5607C99.4204 60.2804 100.523 60.1837 101.596 60C102.437 60 103.268 60 104.109 60C104.757 60.0967 105.415 60.174 106.062 60.2804C113.932 61.5855 120.245 67.9954 121.425 75.8845C121.56 76.7739 121.618 77.673 121.705 78.5625C121.705 78.7269 121.705 78.8815 121.705 79.0459C121.676 79.2489 121.637 79.4616 121.628 79.6646C121.56 81.2502 121.241 82.7971 120.787 84.3053C119.636 88.1145 117.741 91.5659 115.537 94.853C112.018 100.093 107.841 104.772 103.278 109.113C103.152 109.229 103.056 109.374 102.949 109.5C102.882 109.5 102.824 109.5 102.756 109.5C102.669 109.394 102.592 109.278 102.495 109.181C101.373 108.098 100.223 107.044 99.1207 105.933C94.7604 101.514 90.8449 96.7576 87.8188 91.3146C86.2816 88.5495 85.0441 85.6588 84.4351 82.536C84.2224 81.4146 84.145 80.2737 84 79.1426ZM113.632 86.7803C117.819 81.8593 118.099 73.2741 112.143 67.8697C106.304 62.5717 97.1291 63.2581 92.1598 69.3393C87.2871 75.2947 88.6986 83.0774 92.1018 86.7609C92.6722 85.9682 93.4649 85.5718 94.4124 85.4074C95.4275 85.2334 96.433 85.0014 97.4288 84.7597C97.6125 84.7113 97.8155 84.547 97.9122 84.3826C98.2022 83.8799 98.4343 83.3578 98.647 82.9228C98.1636 81.9946 97.7188 81.1052 97.2451 80.2254C97.1291 80.0224 96.9551 79.8 96.7521 79.6937C95.3115 78.8912 94.9538 77.1703 95.9689 75.8651C96.0366 75.7781 96.0753 75.6331 96.0463 75.5364C95.5049 73.3031 96.0463 71.2825 97.3611 69.4746C98.6566 67.6957 101.19 66.9223 103.288 67.5894C103.607 67.6957 103.858 67.7537 104.148 67.483C104.303 67.338 104.573 67.3187 104.825 67.222C104.757 67.5313 104.709 67.7537 104.651 68.0244C106.807 67.5797 109.059 68.9332 109.697 71.0021C110.084 72.2493 109.939 73.4868 109.601 74.7146C109.475 75.1787 109.369 75.6524 109.842 76.0295C109.978 76.1455 110.065 76.3485 110.133 76.5226C110.597 77.702 110.104 79.0169 108.963 79.6743C108.789 79.771 108.615 79.9063 108.518 80.0707C108.015 80.9988 107.542 81.9463 107.029 82.9324C107.242 83.3675 107.483 83.8992 107.764 84.3923C107.861 84.5566 108.064 84.721 108.247 84.7693C109.243 85.011 110.249 85.2431 111.264 85.4171C112.25 85.5621 113.033 85.9682 113.632 86.7803ZM97.1388 76.4936C96.7327 76.4162 96.5104 76.6096 96.404 76.9576C96.1526 77.7697 96.6264 78.7075 97.4481 78.9202C97.7769 79.0072 97.8832 79.1716 97.9799 79.4423C98.4536 80.7571 99.1014 81.9753 100.107 82.9711C101.818 84.663 103.868 84.6533 105.569 82.9711C106.594 81.956 107.242 80.6991 107.774 79.3746C107.841 79.2006 108.054 79.0846 108.209 78.9589C108.518 78.7075 108.914 78.5335 109.127 78.2241C109.63 77.499 109.34 76.6386 108.586 76.4452C108.46 74.589 107.029 72.8197 105.589 72.7424C105.54 72.8197 105.502 72.8971 105.453 72.9841C104.825 74.0669 103.916 74.4343 102.708 74.1056C102.456 74.0379 102.214 73.9509 101.973 73.8832C100.929 73.6028 99.8845 73.3515 98.7823 73.5352C97.6995 73.7188 97.1484 74.3569 97.1388 75.4494C97.1388 75.7781 97.1388 76.1165 97.1388 76.4936ZM92.6528 87.486C98.4246 93.8379 108.199 93.1611 113.023 87.457C112.675 86.906 112.211 86.5192 111.554 86.3839C110.5 86.1615 109.446 85.9295 108.392 85.7265C108.18 85.6878 107.909 85.7361 107.725 85.8328C106.575 86.4709 105.434 87.1477 104.293 87.8051C103.723 88.1338 103.587 88.0854 103.288 87.486C103.152 87.2153 103.027 86.9543 102.853 86.6063C102.669 86.964 102.533 87.2347 102.408 87.5054C102.118 88.0854 101.973 88.1338 101.402 87.7954C100.262 87.138 99.1207 86.4709 97.9702 85.8231C97.8059 85.7265 97.5738 85.6781 97.3998 85.7071C96.3073 85.9102 95.2245 86.1519 94.1417 86.3839C93.4746 86.5192 93.0105 86.9156 92.6528 87.486ZM103.404 85.6975C103.616 86.1229 103.81 86.5096 104.013 86.9253C105.076 86.3065 106.101 85.7168 107.145 85.1077C106.932 84.6823 106.739 84.2859 106.526 83.8702C105.473 84.4986 104.457 85.0884 103.404 85.6975ZM101.692 86.935C101.905 86.4999 102.098 86.1132 102.292 85.6975C101.228 85.0787 100.213 84.4986 99.1594 83.8799C98.9467 84.3053 98.7533 84.7017 98.5503 85.1174C99.6234 85.7361 100.629 86.3162 101.692 86.935Z" fill="#21B8BF"/>
<path d="M49.5 114C54.6019 111.133 65.7722 101.333 69.6389 85.0691C74.4722 64.7394 77.6944 49.1011 93 40.5" stroke="#21B8BF" stroke-linecap="round"/>
</svg>
