<svg width="138" height="150" viewBox="0 0 138 150" fill="none" xmlns="http://www.w3.org/2000/svg">
    <path opacity="0.1" fill-rule="evenodd" clip-rule="evenodd" d="M65.5352 0C105.787 0 137.475 33.5607 137.475 73.8122C137.475 114.733 106.456 150 65.5352 150C26.2891 150 0 113.058 0 73.8122C0 35.2647 26.9877 0 65.5352 0Z" fill="#66C68F"/>
    <path fill-rule="evenodd" clip-rule="evenodd" d="M40.6037 86.0938H23V110.739C23 111.206 23.1847 111.655 23.5155 111.984C23.8448 112.315 24.2936 112.499 24.7604 112.499H91.6546C92.1214 112.499 92.5702 112.315 92.8994 111.984C93.2303 111.655 93.415 111.206 93.415 110.739V96.656H45.8849C44.4837 96.656 43.1405 96.0996 42.1511 95.1086C41.1601 94.1192 40.6037 92.7761 40.6037 91.3748L40.6037 86.0938ZM82.8527 100.177C80.9092 100.177 79.332 101.754 79.332 103.697C79.332 105.641 80.9092 107.218 82.8527 107.218C84.7962 107.218 86.3735 105.641 86.3735 103.697C86.3735 101.754 84.7962 100.177 82.8527 100.177ZM72.2905 100.177C70.347 100.177 68.7697 101.754 68.7697 103.697C68.7697 105.641 70.347 107.218 72.2905 107.218C74.234 107.218 75.8112 105.641 75.8112 103.697C75.8112 101.754 74.234 100.177 72.2905 100.177Z" fill="#66C68F"/>
    <path fill-rule="evenodd" clip-rule="evenodd" d="M40.6037 75.5312H24.7604C24.2936 75.5312 23.8448 75.7159 23.5155 76.0468C23.1847 76.3761 23 76.8248 23 77.2916V82.5727H40.6037V75.5312Z" fill="#66C68F"/>
    <path fill-rule="evenodd" clip-rule="evenodd" d="M44.125 66.7305V91.3757C44.125 91.8425 44.3097 92.2913 44.6405 92.6205C44.9698 92.9514 45.4186 93.1361 45.8854 93.1361H112.78C113.246 93.1361 113.695 92.9514 114.024 92.6205C114.355 92.2913 114.54 91.8425 114.54 91.3757V66.7305H82.9237C80.6768 69.97 77.4468 72.524 73.5599 73.9196C71.1692 74.781 69.3647 75.4285 69.3647 75.4285C68.9812 75.5676 68.5584 75.5676 68.1749 75.4285C68.1749 75.4285 66.3705 74.781 63.9798 73.9196C60.0929 72.5239 56.8628 69.9698 54.616 66.7305H44.125ZM63.4891 89.6153H74.0514C75.0227 89.6153 75.8117 88.8263 75.8117 87.855C75.8117 86.8836 75.0227 86.0946 74.0514 86.0946H63.4891C62.5178 86.0946 61.7287 86.8836 61.7287 87.855C61.7287 88.8263 62.5178 89.6153 63.4891 89.6153ZM52.9269 82.5738H63.4891C64.4605 82.5738 65.2495 81.7848 65.2495 80.8135C65.2495 79.8421 64.4605 79.0531 63.4891 79.0531H52.9269C51.9555 79.0531 51.1665 79.8421 51.1665 80.8135C51.1665 81.7848 51.9555 82.5738 52.9269 82.5738Z" fill="#66C68F"/>
    <path fill-rule="evenodd" clip-rule="evenodd" d="M82.8535 55.6972V43.5718C77.618 43.1788 72.6574 41.0437 68.7705 37.5C64.8836 41.0435 59.923 43.1789 54.6875 43.5718V55.6972C54.6875 62.3812 58.8826 68.3452 65.1703 70.6055L68.7705 71.8998L72.3707 70.6055C78.6586 68.3454 82.8535 62.3812 82.8535 55.6972ZM78.8925 47.5728C78.8925 46.5998 78.1035 45.8124 77.1322 45.8124C74.5584 45.8124 72.0955 44.7632 70.3124 42.9077C70.1418 42.7301 70.0397 42.6248 70.0397 42.6248C69.7073 42.2798 69.2491 42.0841 68.7705 42.0841C68.2919 42.0841 67.8337 42.2798 67.5013 42.6248C67.5013 42.6248 67.3991 42.7301 67.2286 42.9077C65.4454 44.7631 62.9825 45.8124 60.4088 45.8124C59.4374 45.8124 58.6484 46.5998 58.6484 47.5728V52.942C58.6484 59.0403 62.4403 64.4953 68.1576 66.6186C68.5521 66.7664 68.9891 66.7664 69.3836 66.6186C75.1009 64.4951 78.8929 59.0403 78.8929 52.942L78.8925 47.5728Z" fill="#66C68F"/>
    <path fill-rule="evenodd" clip-rule="evenodd" d="M114.54 63.2095V57.9283C114.54 57.4615 114.355 57.0128 114.024 56.6835C113.695 56.3527 113.246 56.168 112.78 56.168H86.3679C86.3082 58.6357 85.78 61.0175 84.8574 63.2095H114.54Z" fill="#66C68F"/>
    <path fill-rule="evenodd" clip-rule="evenodd" d="M51.1719 56.168H45.8854C45.4186 56.168 44.9698 56.3527 44.6405 56.6835C44.3097 57.0128 44.125 57.4615 44.125 57.9283V63.2095H52.6824C51.7582 61.0175 51.2317 58.6357 51.1719 56.168Z" fill="#66C68F"/>
    <path fill-rule="evenodd" clip-rule="evenodd" d="M68.7693 46.2812C66.8894 47.864 64.5987 48.8818 62.168 49.2125V52.9423C62.168 57.3473 64.7771 61.3096 68.7693 63.07C72.7616 61.3096 75.3706 57.3473 75.3706 52.9423V49.2125C72.9399 48.8817 70.649 47.8655 68.7693 46.2812Z" fill="#66C68F"/>
</svg>
