<svg width="28" height="26" viewBox="0 0 28 26" fill="none" xmlns="http://www.w3.org/2000/svg">
<path opacity="0.3" d="M27.2093 1.10662C27.33 1.27428 27.4004 1.47292 27.4121 1.6792C27.4238 1.88549 27.3764 2.09083 27.2754 2.27108L14.9271 24.4685C14.8174 24.6594 14.6522 24.8125 14.4535 24.9073C14.2548 25.0021 14.0319 25.0342 13.8145 24.9994C13.5971 24.9646 13.3954 24.8644 13.2363 24.7122C13.0772 24.5601 12.9681 24.3631 12.9235 24.1474L10.4858 13.3281C10.4678 13.248 10.4177 13.1788 10.3472 13.1366L0.831333 7.44029C0.649371 7.33184 0.50313 7.17251 0.410642 6.98194C0.318157 6.79138 0.283473 6.5779 0.310865 6.36786C0.350002 6.15206 0.453615 5.95318 0.608048 5.79744C0.762479 5.64171 0.960479 5.53643 1.17595 5.49548L26.1204 0.70135C26.3216 0.65873 26.5308 0.674198 26.7236 0.745953C26.9164 0.817707 27.0849 0.942793 27.2093 1.10662ZM5.1584 6.8729C4.88726 6.92438 4.82362 7.28377 5.06059 7.42523L11.2334 11.11C11.3363 11.1715 11.466 11.1658 11.5631 11.0955L17.1144 7.07754C17.2486 6.9804 17.4362 7.01046 17.5333 7.14467L18.4502 8.41138C18.5473 8.5456 18.5172 8.73316 18.383 8.8303L12.7832 12.8833C12.6854 12.9541 12.6396 13.0764 12.6668 13.194L14.2829 20.1811C14.3448 20.449 14.7045 20.4993 14.8376 20.2588L23.735 4.17995C23.94 3.80938 23.6203 3.36764 23.2042 3.44664L5.1584 6.8729Z" fill="#21B8BF" stroke="#21B8BF" stroke-width="0.5"/>
</svg>
