<svg width="24" height="24" viewBox="0 0 24 24" fill="none" xmlns="http://www.w3.org/2000/svg">
<g opacity="0.6">
<path d="M16.502 11C15.6735 11 15.002 10.3284 15.002 9.5C15.002 8.67157 15.6735 8 16.502 8C17.3304 8 18.002 8.67157 18.002 9.5C18.002 10.3284 17.3304 11 16.502 11Z" fill="black"/>
<path d="M13.502 14L15.002 12L18.002 16H6.00195L10.502 10L13.502 14Z" fill="black"/>
<path d="M3.2 3H20.8C22.0133 3 23 4.00912 23 5.25V18.75C23 19.9909 22.0133 21 20.8 21H3.2C1.9867 21 1 19.9909 1 18.75V5.25C1 4.00912 1.9867 3 3.2 3ZM20.8 18.75V5.25H3.2L3.1978 18.75H20.8Z" fill="black"/>
</g>
</svg>
