<svg width="40" height="40" viewBox="0 0 40 40" fill="none" xmlns="http://www.w3.org/2000/svg">
<path d="M30.0007 21.6673H21.6673V30.0007C21.6673 30.9173 20.9173 31.6673 20.0007 31.6673C19.084 31.6673 18.334 30.9173 18.334 30.0007V21.6673H10.0007C9.08398 21.6673 8.33398 20.9173 8.33398 20.0007C8.33398 19.084 9.08398 18.334 10.0007 18.334H18.334V10.0007C18.334 9.08398 19.084 8.33398 20.0007 8.33398C20.9173 8.33398 21.6673 9.08398 21.6673 10.0007V18.334H30.0007C30.9173 18.334 31.6673 19.084 31.6673 20.0007C31.6673 20.9173 30.9173 21.6673 30.0007 21.6673Z" fill="black"/>
</svg>
