<svg width="40" height="40" viewBox="0 0 40 40" fill="none" xmlns="http://www.w3.org/2000/svg">
<path opacity="0.5" d="M30.0013 16.668H21.668" stroke="black" stroke-width="3" stroke-linecap="round"/>
<path d="M3.33398 11.584C3.33398 10.1123 3.33398 9.37732 3.45065 8.76398C3.69936 7.44705 4.33921 6.23565 5.28674 5.28783C6.23426 4.34001 7.44546 3.69977 8.76232 3.45065C9.37732 3.33398 10.114 3.33398 11.584 3.33398C12.2273 3.33398 12.5507 3.33398 12.8607 3.36232C14.1957 3.4877 15.462 4.01278 16.494 4.86898C16.734 5.06732 16.9607 5.29398 17.4173 5.75065L18.334 6.66732C19.694 8.02732 20.374 8.70732 21.1873 9.15898C21.6343 9.40814 22.1086 9.60499 22.6007 9.74565C23.4973 10.0007 24.459 10.0007 26.3807 10.0007H27.004C31.3906 10.0007 33.5857 10.0007 35.0107 11.284C35.1423 11.4007 35.2673 11.5257 35.384 11.6573C36.6673 13.0823 36.6673 15.2773 36.6673 19.664V23.334C36.6673 29.619 36.6673 32.7623 34.714 34.714C32.7623 36.6673 29.619 36.6673 23.334 36.6673H16.6673C10.3823 36.6673 7.23898 36.6673 5.28732 34.714C3.33398 32.7623 3.33398 29.619 3.33398 23.334V11.584Z" stroke="black" stroke-width="3"/>
</svg>
