<svg width="80" height="80" viewBox="0 0 80 80" fill="none" xmlns="http://www.w3.org/2000/svg">
<g opacity="0.4">
<path opacity="0.5" d="M59.9987 33.332H43.332" stroke="black" stroke-width="5" stroke-linecap="round"/>
<path d="M6.66602 23.166C6.66602 20.2227 6.66602 18.7527 6.89935 17.526C7.39676 14.8921 8.67647 12.4693 10.5715 10.5737C12.4666 8.67806 14.889 7.39759 17.5227 6.89935C18.7527 6.66602 20.226 6.66602 23.166 6.66602C24.4527 6.66602 25.0993 6.66602 25.7193 6.72268C28.3895 6.97345 30.922 8.02361 32.986 9.73602C33.466 10.1327 33.9193 10.586 34.8327 11.4993L36.666 13.3327C39.386 16.0527 40.746 17.4127 42.3727 18.316C43.2667 18.8143 44.2152 19.208 45.1993 19.4893C46.9927 19.9993 48.916 19.9993 52.7593 19.9993H54.006C62.7793 19.9993 67.1693 19.9993 70.0193 22.566C70.2827 22.7993 70.5327 23.0493 70.766 23.3127C73.3327 26.1627 73.3327 30.5527 73.3327 39.326V46.666C73.3327 59.236 73.3327 65.5227 69.426 69.426C65.5227 73.3327 59.236 73.3327 46.666 73.3327H33.3327C20.7627 73.3327 14.476 73.3327 10.5727 69.426C6.66602 65.5227 6.66602 59.236 6.66602 46.666V23.166Z" stroke="black" stroke-width="5"/>
</g>
</svg>
